<mxfile host="app.diagrams.net" modified="2020-08-26T20:48:00.302Z" agent="5.0 (Windows NT 10.0; Win64; x64) AppleWebKit/537.36 (KHTML, like Gecko) Chrome/84.0.4147.135 Safari/537.36" etag="UEWjtS9h7fxBbayKFxY-" version="13.6.5" type="github" pages="2">
  <diagram id="vkhyI4dnU8j2-MfPfj9u" name="Acct/Login old">
    <mxGraphModel dx="1074" dy="513" grid="1" gridSize="10" guides="1" tooltips="1" connect="1" arrows="1" fold="1" page="1" pageScale="1" pageWidth="850" pageHeight="1100" math="0" shadow="0">
      <root>
        <mxCell id="0" />
        <mxCell id="1" parent="0" />
        <mxCell id="I273OiCa2j2T80UVLWCG-1" value="" style="shape=image;imageAspect=0;aspect=fixed;verticalLabelPosition=bottom;verticalAlign=top;image=data:image/png,iVBORw0KGgoAAAANSUhEUgAAAggAAAFtCAYAAABiLZIXAAAgAElEQVR4XuxdB3iTVdt+zvumEyhQ9hBQELACbVMF0U9BURQVELECbVJwC04cuEBFQJYsF26xSQG/ulBExU8B92pStiAqCqKMAmW0hSbv+a/72PDXWmhmk7bPua5ebZMz73OSc7/PFMSFEWAEGAFGgBFgBBiBCggIRoQRYAQYAUaAEWAEGIGKCDBB4DPBCDACjAAjwAgwAv9CgAkCHwpGgBFgBBgBRoARYILAZ4ARYAQYAUaAEWAEqkaAJQhVY8Q1GAFGgBFgBBiBOocAE4Q6t+W8YEaAEWAEGAFGoGoEmCBUjRHXYAQYAUaAEWAE6hwCTBDq3JbzghkBRoARYAQYgaoRYIJQNUZcgxFgBBgBRoARqHMIMEEI/5YLq9U6iYgGeaZis9lSiMgI/9R4BowAI8AIMAJ1FQEmCGHe+aysrFy3271U07QPSkpKJKaTm5u7O8zT4uEZAUaAEWAE6jgCTBDCfACsVutKm83WN8zT4OEZAUaAEWAEGIF/IMAEIcwHwmq1rrDZbOeHeRo8PCPACDACjAAjwAQhks4AE4RI2g2eCyPACDACjIAHAZYghPksMEEI8wbw8IwAI8AIMAKVIsAEIcwHozKCkJSUlGgymZq5XK7dGzZs2Ft+ij169Ki3Zs2aw2GeNg/PCDACjAAjUMsRYIIQ5g2ujCCYzeZle/fuvTIxMfHVP/744/oGDRromqZFb968eY/ZbN7gcDi6lblBaikpKQm6rh/Ny8sr6t69e+Pi4mL3li1bDoR5WTw8I8AIMAKMQA1HgAlCmDewMoKQmpr6PhH9fvjw4cnx8fHxuq7fdfTo0Zkmk6mXpmnT8/LyOoAgpKam9i4pKdkRGxt7T2Fh4fiGDRumGIYRW1pa+n1FyUOYl8nDMwKMACPACNQwBJgghHnDjmODoHfv3j3BZDKNJ6LVRNRDSrlUCLFP07R38/Ly2mPaKSkpY4hov6ZplzgcjpFpaWnnSCkfO3To0NWQNoR5aTw8I8AIMAKMQA1GgAlCmDfvOCqGuUSUQESuoqKiB+Lj4+cR0e69e/dObNKkybNHjhyZtG7duo2pqakjhBBnG4bxp2EY30ZFRQ2WUjYrKSm5hSUIYd5YHp4RYAQYgRqOABOEMG8gezGEeQN4eEaAEWAEGIFKEWCCEOaDwQQhzBvAwzMCjAAjwAgwQYjEM1AZQUhLS2uYl5dX6O18O3fu3NRbmwO4UMbExDRwu917qnKXTE1NbeZ0OjkvhLcbwfUYAUaAEahFCLAEIcybWRlBaNu2bVxiYqJ29OjR2JKSksNbt2492rlz50QhxJFNmzYdTEpKqu92u0V8fHysEGLM4cOHZ8fExBi48NPS0qKKi4tFdHR0POqsXbt2X/klms1m2DfsIqLTpJTLnU6nPS0trUlxcbEBuwXEWcC4P/74436z2fyaYRjLdF1fnpeXx0aPYT4rPDwjwAgwAtWJABOE6kS7krGOI0G4jIgeLi0tfdBkMg1zuVw2TdNKdF235eXldUtJSZmpaRpJKR1CiFOklNuFEJsPHz6cHx8ffwsR/VZGAHbquv5ZXl7eWs/QIAhFRUWTfvzxxwL8LaV81TCMfpqmddY0DeThNSnldMMwTsrPz59nNpun79q1a/r27dv/EbApzLDx8IwAI8AIMAIhRoAJQogBrqr74xEEKeUAh8Nxq9lsnoGneE3TBhPRGW63+270uXr16u9TUlI6aZo2REpZsHv37oXNmze/VUrZU0r5thDiciHE9tLS0uVr1679X2UEISUlZbqmaWsdDoc9NTW1NRGhv5SCgoIXEhMTn3U4HNempqZO3Ldv39StW7eWVLUWfp8RYAQYAUag9iDABCHMe3kCgnCRw+G4E5c4EW0goihN0/q7XK5puq7fKYQoLi0tnRMVFTVDSrnE6XS+nJqausIwjKlut3tjdHT0FCHEhsOHD78YHx8/w+FwXIellqkYtkopU4QQX0spPyei24ioVWlp6W0xMTEDCwoKXklMTJzvcDiuSU5OtiD+Qn5+PoI3cWEEGAFGgBGoIwgwQQjzRh/HiyEKtgQIn5yWlhafl5dX3KNHjzZr1qzZ3qlTpxiXyxUXHx/v2rBhw6FOnTohXsKRLVu2HCmriyd9IyUlpdHRo0c12BUgBLPHFsFjY3Do0KGi7du3F2P5PXr0aF5UVFSCEM0dOnSIhbQAdg7on4i0Ll261IPtQ5ih4uEZAUaAEWAEqhEBJgjVCHZlQ7GbY5g3gIdnBBgBRoARqBQBJghhPhgnIAiie/fujcp7IXTt2rXJjz/+CK8EI8zT5uEZAUaAEWAEajkCTBDCvMHHIQimlJSU+rquj8zLy3syKSmpHsT9ZrP5kdLS0ifdbvfhAwcO6Nu3bz+Smpo6zOl0vt6pU6col8sl2JgwzBvKwzMCjAAjUEsQYIIQ5o08TjbHb4UQu4UQHxuG0UJKiXTPpxPR9yAIUVFRi6SUbinlAk3T7pJS3iaEsBPRZvztdDrh5siFEWAEGAFGgBHwGwEmCH5DF5yGFQkCjAQbNmx4hqZpmzRNyyCiLCklAhvFEdGK0tLSFfBcICIYDX5MRK0Ry0AI8SQRFUkpZzmdzmNujcGZJffCCDACjAAjUNcQYIIQ5h0/jpvjfMMwtiI4kmEYp7lcrhdNJtNQRFKUUr4ohBhrGMZKwzAKTCaTxeVyPWcymW52u91vQoqwevXqP8K8LB6eEWAEGAFGoIYjwAQhzBtYGUHo1q1bDyHEISnl4dLS0qL4+PhuhYWFGxo2bFjP6XTu7NGjRyciqrdmzRpnt27dmkdFRcFosZkQIs7hcDjZiDHMm8rDMwKMACNQCxBgghDmTWQ3xzBvAA/PCDACjAAjUCkCTBDCfDCYIIR5A3wYvm/fvqa2bdvOa9y48UW6rkf70LRaq+7fv39NaWnp/Tk5OYjA6VcZNWpUrMvlekoIAePYE5Zt27adt3LlSldV9fh9RoARqFkIMEEI834xQQjzBvgwfFZW1qNWq/WRfv36kRCR+9HZvn07TZgwYcOCBQuqvNyPt3yLxTJNSrkxJyfnNR8g4qqMACNQixCI3G+5WgTyiZbCBKHmbPTIkSOXzJ8/f1BcHBxKIrtMmjSp8OGHH27k7yytVus7NpvtCn/bcztGgBGo+QgwQQjzHjJBCPMG+DB8TSIIU6ZMKRw/fjwTBB/2l6syAozAPxFgghDmE5GVlfVFdnb2f8I8DR7eCwSYIHgBEldhBBiBWoMAE4Qwb6XVap1IRGcQkcMzFZvN9jARyTBPjYevgAATBD4SjAAjUJcQYIIQAbudkZFxvqZpzTxTsdvt/42AafEUAiQIu3fvpmbNmtHhw4epXr16qreCggJq0qTJsZ6///57OvPMM/8x0nfffUdpaWmk67rfexBqFYPZbB4mhEjEBKWU2wzD0PPz85fgf8TxWLdu3ZqKk09NTU1yOp3/8qzo0aNHN5PJ1NnhcLxV2YKRolzX9QFOp/ONiu8jxXlBQYHRqFGjofn5+Tm+AlaWIr3I13b+1kd69vr16/fKz89HFFQujEBEI8AEIaK3hycXSQj4KkGYM2cOjR07lmbOnEmDBw+mjh070vvvv68u/9LSUurQoQOtWrWKSkpKqHv37tS6dWvaunUrvfDCC/BCoF9//VURjEaNGtH+/fspISGBYmJivIIk1AQBIcEbN27cTdM0vbCwMD8hIWESEX3jdrs3ud3uknXr1v2ckpICI8fS/Pz8ZeARqamp7fft27czMTFxABG5HA7HUrxuNptfMAxjAREJTdPaFBUVfRIfH3+2YRhutEUW03r16j1nGMZbLpfrQyJqrOv6WZqmrZNSni2E2CelvNTtdr9hGMaWdevWbSwjKh2joqJSiouLV8bFxZ0PgmE2my8+evTohpiYmDSXy/WbyWTqh6ikZaCe6na7P9c0rb0QIgFzJ6KGR44c+V7X9YO6rvcRQmw/cuTIrtjY2GT0ExUVlWoYxoHVq1cvRx/du3c/xWQypbpcrvUIdqbr+ikIYuZ0OpekpqaifVMiau9wOBAunQsjENEIMEGI6O3hyUUSAr4ShMWLF9OFF15IDz/8sJIanHvuudS1a1f6/PPPaefOnTR06FB67LHHqEuXLnTdddepOtu2baOlS5eSpmnUrl07WrZsGT344IP0yiuv0G233aZIgjcl1AQBc4BEgIiinE7n6tTU1AVOp/P61NRUSBFedzqdOampqVcT0Y6ioiLHpk2bDqampl7lcrnWmUwmEIuCnTt3frN9+/ZiZCktCyH+woEDBzISEhJyhBBtjx49OnTt2rW/gCDEx8cvNgwjXdf1Z6WUqQcOHEhJSEh4iYjeI6KfpZR3O51Oi9ls/sXhcHTA/Mxm85y//vrroRYtWgzVNG1yXl5ee7PZ/AkRbTQMA9KIUl3X2xcUFLyVmJi4zuFwnJqWlpYjpTxCRLjAHzhw4MCtCQkJCGFen4huklI+gSRpRNRGSgkpSRRCojudTpAMV2pqKkKibxBC3EVE77jd7n1CiDMMw/hQCAGCsFkI0YsJgjenmOuEGwEmCOHeAR6/xiDgK0HYtGkTvfPOO5ScnExffPGFkg7MmzePHnnkEXXR9+/fn2w2m1Ix3HzzzQqH4uJievvtt2nPnj10++23U25uLv3nP/+BGF9JGLwtYSAIU51O5wNms3mxlHJZGUFoIYR4vbi4+OqNGzf+CYLgdDrf6datW5Po6OiPDx06dMHmzZv3gCCUlJTkxMbG3rtr1647mzdv/qkQIjYvL68nLvEygjDf5XJdYzKZQAiaOByOFLPZ/LphGLlEtFUIcaPT6bzBbDbvczgcUH1AYvG40+kcn5qa2kTTtK/z8vI6mc3mVYcPH748Li4uTdO0mw3DePfAgQPvN2rU6G2Hw3GB2WxG/3v27t07OjEx8T6HwzHFbDZ/QETJUsqLQAgMw2hnMpmOFBYW/i8hIeEkKeXy3bt3n15GdpaWlJTcGRsb+6gQYlFeXt77ZrN5oGEY26SUnQ3D2BgVFTWACYK3J5nrhRMBJgjhRJ/HrlEI+EoQcKkPHDiQlixZQmvWrKG33npLSQFeeuklOnTokFIxfPvttzR8+HByu910ySWXHCMIaHvw4EH1/uOPP14TCYLNbDavlFIecjqdQ4joKAiC2+3+LCoq6j0pZYHD4RgMAgCC8Ndff81s0aLFBCHEIJfLNSwqKspWgSBAtRBTUlJyeXR0dKoQYo4QYprL5Vql6/oD6KccQWiMg5WSknK9pmljhRA3GYbRXQhhISLN5XI9bjKZxkH6IKUEGbkRUgUhxM1SyuuJ6NoKBOE9l8t1p8lkektKuVgI8R36d7lcW00mE6QJvzscjuEgJSkpKY8IIc4iolVSyr/y8/MXlBGEtUIIJFrbQ0ROJgg16qNfZyfLBKEWbv3w4cNbCyGOLlq0CF9GXIKEgK8EAcPikm/QoAEZhkFHjhwhBFkqLCxURotHjx5Vtgh4H5IDvAZiAJsE2BrA7qB+/frHjBV9MVqsDglCkGDlbhgBRiBCEWCCEKEbE8i0rFbrODy92O327ED64bb/RMAfghAuDJkghAt5HpcRqD0IMEGoPXt5bCVWqxUGU3tsNttVtXB5YVtSdRAESBogYWjcWEnJadeuXdS8eXOf1xxpBMFsNp/rcDg+93khx2nQvXv3xlFRUbBRgHpm1+rVq5Hm/F8FLpSAUdf1dkKIC3wR7ZvN5ssNwzh06NCh9Vu2bNldvnMYaB48eHD7li1bDlQ2bkpKSt/8/HzlHZGamnqe2+3OW7NmzeFgrZ/7YQSqAwEmCNWBcjWO0b9//3otW7bcKaV067reYsGCBSXVOHytHqoygnDgwAGlIoANARI4QVUAtQDUCVAVwBgRr6FAvbBv3z5q2LChUi/gf6gYTCYTFRUVUWxsrHodRooZGRmEOAr33HMPPf/886rvqKgownjx8fHKywFjulyuY66P6MdTqoEgaMnJyRdJKXevWbMmPzU11WwYRgMp5VZN01rn5+d/2b17965RUVEddu3atap58+bjhRBTpJQXQHcvpRTFxcWbGzRokFBaWqpFR0fDgM9Au5SUlFOJ6FTDMFaVuTR2J6IfnE7nsUsaly68AYhoDQjCwYMHf2nYsGEfKeVn+fn5+5OTk3u63e4/o6KiNLfbHatp2iVCiD/giSildMKOwOl07jCbzWkOhyOvLHbDWvTrdDpXpaWldXS5XE10XU8XQmTn5eWtLcNWS0lJOU/TtDNhgOl2uxOllC1Wr179SVJSUmxsbGzPXbt2fd2iRYtOhYWFm+vXr99P07S+R48enaVpWgdd1+s7nc5PORBarf6qqDWLY4JQa7by74VYrdY7YcCFvw3DGMZBl4K3wRUJAlwQEasAronXX389vfzyy+pSh5fCxIkT6aSTTlI/8GbwXOpwZYRtAewNxowZQzk5OXTZZZfRm2++SV999RU9/fTTys0RBGHdunX0zDPPIPAQ/fTTT3T22WfTzz//THv37qWsrCzlAQFi0bRpUzUPuEJ67BRCTRBSUlIuQ5wCk8k0Uko5TQgxyTCM94QQ8PvHJXib2WxG4KPXiQi+mR0Mw9itado3UsoJRPQ8XCCJ6FIi+pWIkqSU210u16dRUVGvud3u2xF3AO6EhmE8D1fB/Pz8Y5klywhCR7fbDYPB/ZqmXVxaWvp1dHQ0opC+73K5CnVdT9E07XfwDkgPhBCz3W43SEq2EGKo2+1+PTo6elheXt7U5OTkawoKChY3b978w5KSkmExMTEjNU3rIaXcUZ4gpKamwt0E4w2SUs4nonEul2uuruvNhRCD3W73dF3XIdnoWOZ+mSeEeLm0tHSYyWQahaBSmqbtcTgcwIULIxDRCDBBiOjt8X1yGRkZCPLSD1bjR48e/V9ubu5fvvfCLSpDoCJB+PTTT+nDDz9U0REnTZpE0dHR6skel/Xq1avpmmuuUa6Kp5xyivp91VVXKU8GxDVA4CRIAz766CMVTAlBlTZv3qwIAVwiPRIEu92uyAU8He6++2567rnnFDE4+eSTleEjpBdJSUmKkCDeAqQXKJMmTSrZvHnzsyfaSSGENAxj09GjR1/Lzc09Wr5uVdkczWbzdMQLEEIYUsr/CiHS8cSP/0EGnE5ndkpKyuD8/Pz3UlNT7y0LPGRyOBz3JScn36pp2utCiFvKghHtkFIiH8lvRPS9EGKClBKuhVuKiopW1atXD3EStjmdzsmeOYIgSClPNgzjm9LS0gOxsbGzhRDfCiGypJQ/lJSUPBwXFwfxP+Z1jCAYhgECAYIwzjCMzfv3739+69atJV26dGkAKUZ0dLRJSnmVEAJxEm6vSBDS0tJmlZaWztE0bSjmq2kaYiN85Xa7V+u6fqHT6by9bdu2cc2bN59oGMbR/Px8uFk+aRjGF5qmXQbSQERfOp1OxGPgwghENAJMECJ6e/ybXFZW1mApZYnNZvvIvx64lTcEYdq0accu7qeeeormz5+vJAbnn38+TZ06VZECuDhCzXDnnXfSiBEjVFRFkAC0TU9PV5c6JAVXXHEFDRs2jJ544gn64YcfKiUIIAu9evVSKggQBsRVaNmyZaUEwQcJgrBYLC/b7fZrfSEInTt3blq/fn1ICBLcbvdluq5fX5EgmM3mryHIklI+IIS42OVyfW4ymcYS0SkOh+M0s9k81+12v4vLNTo6GtEW1+/du/fGxMTEL6WU+PmmTI1QKoTQpJT5IB6YZxlB0Dx6fsREEEJAnQYVxiBd1yEp+FPTtM/KEwQiutgwjG6GYXyk6/ojDocDwZxQTGazeX9JSUnLuLi4z/Ly8sxlQZP+IUFIS0vrhWBJQohmZeO8TUQfl5aW2kwm081lkRJBbjq53e7/6bqO9TY/evTopdHR0ZAa7CMijPuvUNT8qWMEIg0BJgiRtiNBmA8ThCCAWEkXFSUIsC3AD57wERkR6gPYEMDAcOHChXTxxRcrewPYGaAOfkO9gKd+2BvABRJP/JAEwDYBRMJjy4D38TrsGGB/4AmxDPUCbBfwP+pCYgHbA0++B9RF8YEgQC3l2LZtW8+VK1e6PMuuSoKAep06dYrZsmULwhFDaqCV06tjEgZsEIqLi3/dsmULIhPifQMhmrdu3Xq0W7duJ0dHRz/jcDguR0gBXNAItVwmURAdOnSIwZM9Xiv3t+qjbI6e7y5PUjP8j+QV+N9dNjdIRdRcMH5aWpqel5eH+epmsxmBl15es2bNt541p6WlRXneRx9l/eFt/H2slPWNOeN1rVOnTlFlawRZi96wYQPGxVzcnvWWzcGUlpYmysYIzSHlXhmBICLABCGIYEZKV0wQQrMTJ/JiwEWOi9pjKLhjxw6fIh8Ge8a+EISsrCzn+vXre5a/uLwhCFXNuewiBTn4V4FI/+DBg+4dO3ZUW6Kk8pNITU1FfoR/eCZUtR5+nxGoawgwQaiFO84EITSbWh1ujsGaeSQQhErWIlJSUnrn5+d/Vdk6zWZzJ4fDsSVYGHA/jAAjEBgCTBACwy8iW0cKQcjIyDhV0zRYc8OpH+LhkBZN0wpdLteuHTt2OMqLy4M1qD8E4d1331VqBZQhQ4Yo9UJlZdasWUrF0LdvX6WKgETCbDb7PfVQE4SkpKT6uq5HuVyuWORZKMu42CgvL+/nHj16nIxInlLKUill/YMHD+6Ii4trsXHjxm1msznd4XDk9ujR41SXy/Xrhg0b3MnJyR1Xr179a48ePcwQ+SMjItqvWbNme0pKSiPDMBqvWbMGng6m7t27d1q7du3mcqoGvzHihowAI3BiBJgg1MITEmaCIDIyMvrFxsZOad++fU8kGIIbHnz4Q1kQohj6eQQW2rZtW8m+ffvGG4bxYk5OTqWBbPyZiz8EAbYI8EjwFLgxwt4ABot//PEH5eXlUe/evWEzoDwbkPERHhAgFkjShLaoD/zatGnj9bRDTRCSk5Mtuq6fIaVEEiPkO7hLCLFJSrlJCPGqYRg3a5qGjIavENFAxB5wu90fR0VFzYIBosvl+gIEQwhxrpRyBRE1IiKECH/NMIwbEUtBSvm4pmkzDcP4REqpCyG6G4aRo2ma2+l0/s9rMLgiI8AI+IUAEwS/YIvsRuEiCAMGDIhp3rz5k126dLkRFvzw9Q9HAVmA98CyZct2FhcX97Hb7ZuCMQ9/CMKzzz6r3BZRXnzxReXWCDdIpHL+7bffVCAklDPOOINuuukmRQrw/pYtW5RXAwjG9u3bVcImj6GiN2sJNUFISUnJLC4ufjcuLg6BgE4mIosQ4mfDMFZomnZ/WWrlbIfDkZWWljamtLQ0z2QypZQlREpHemfDMOZrmvYL3BqJKFdK2QWeDEeOHFkqpWwSFxfXg4i6Hjhw4MmEhIRsl8s122QyPeFyue4pb1zoDR5chxFgBHxHgAmC75hFfIswEQRhtVrfvfLKKy+Hy14kFMQnGD9+vOvAgQOdFi5cCB/7gIo/BKG8BAHE5YMPPlBRFuHBgKBKiJWwePFiFeSoPEFAYKRbbrmFJk+eTG3btlWBmHwpoSYIqampViklsip2dblcd5lMJgRLWoQgQkT0lMPh6JyWljY/Ly9vtNlsHut2u78UQvTQdf0GwzB2GobxgKZpViFEtMvlsuu6PlIIsdftdr+k6/qdUsrWLpdrElIjl5SUPBMXFzfVMIweJSUlY2JiYi4TQvy1e/fuJUix7AsuXJcRYAS8R4AJgvdY1Zia4SAIVqt1+sCBA++96irEmImcYwUx/kMPPfTTa6+91jnQDfSHICCtsyd4Ecb/66+/lK0BXBihNgBJQCwD/EY9SAkQPhkujPCIQCAmqB7gzuhLqQaCMFxK+eGhQ4eK4eIHF8GCggIdroke74VyboNwYfS4BJrgGtm6devYHTt2qDDgbdu2jdm+fbvHJdEF10CTySTLXAfRFi6F0FEZaWlpMXl5ecVpaWkmdhf05URwXUbAdwQi55vc97lzi+MgUN0EIT09Pa5169Y7p02b1gD+++ULAgQhVgAi/yE8MGwSKhbEEPj999+VLz+M9E5UUAdP4p5LF+J3PGGfqLzzzjv0xhtvTM7JyYEo2+/iD0Hwe7CyRE1Ynz/GiqEmCElJSYkbNmyAtMATlyCQpXJbRoARiEAEmCBE4KYEOqXqJghWq3XR3XffPTw5OflfU8eFD707LPMRCfDyyy9XeQeQM+DWW2+l2bNnq6fjlJQUFWQIT9Aw0kO9zz77TFn9Dxo0SIUXxt8gBnv27EFwHxWcCBEMR40apYz68MQN24eKBQTlvvvu++upp55qFQi21U0QAplrqAlCIHPjtowAI1AzEGCCUDP2yadZVjdBGDly5N758+c3RoS/igUE4Y477lDW+shFgDDCkCKABNx4443KBRBidxCI9evXK7E7Lny8ByM9EIOBAwdS586dqUWLFioVMowfO3TooIaCjh8Ji/r376+M/iBNgLSiYkF44nfeeSczOzt7oU9glqvMBMFf5LgdI8AI1EQEmCDUxF2rYs7VSRCuvfbaBj179tx/0003Vaok90gQcJGnpaWRw+Ggiy66SKkT4P74yy+/KCv9Ro0aKYKAMMVw7bvtttvo0UcfVaoHSAwgcWjVqpXS3UPFgAyHKAsWLFChiNE3chNAHF+ZGgNeAY899tjHNputv79bzgTBX+S4HSPACNREBJgg1MRdiyCCYLFYbr3//vufOv300yud1fTp0+muu+5SkgGoAfr06aOSGnXq1ElJFKBi6NixI3Xp0kXFBYB04KyzziIY96EtJANw/XvhhRcUQejXrx+9/vrrdO21f+cWeuONN1T93NxcatasGVkslkrnASnD6NGjf8rOzvbbWLEmEYTJkycXTpgwAbEFqiyhCrVc5cBcgRFgBCIaASYIEb09/k2uOiUIWVlZr8yaNesaSAMivdx4441/vvjii/+2kvRy4llZWQuffPLJEfBCiCRPjYrThwfErbfeunEMlwcAACAASURBVO25555r583SKiMIWVlZr//+++8jV65cqTwNuDACjEDdQ4AJQi3c8+okCEjqM2/evMFQDUR6uffee/c88cQTzfyd54gRI5rGx8f/2bZtWxNUHpFa4DK5b9++mXa7fZw3c6yMIIwaNaqD2+3eIIRYXTGbYcU+f//9976hCG3tzdy5DiPACIQOASYIocM2bD1XM0F4Y968eUNBEL7++muCJwMMDmGEeN5559GKFStUKGGP+yOMFGE/UNEdEkGNvvzySxowYEClYZnhifDjjz9SamrqCXFFFkXYKVTm+jhu3LjdM2fObB7IxmRlZTVxuVz1DcMIymdH1/UGQohuLpfr60DmVaHt0cWLF+/wtr/KCALaghAhl0JV/SxevHhrVXX4fUaAEah5CATlS67mLbt2z7g6CYLFYpk9Y8aMsbAPWLlypRK94weujZMmTTpmZ4BogXBdhCEhRODwXEDkQEQQRH0kMvr222+VLcGYMWNo8+bNBNJw3XXXKTKBPAvoA++hoO7HH3+sYivATfK9996jrl27Uo8ePVSgIafTqQjF0KFD6aSTTlKk4brrrtu2YMECr8Tu1XVCMjMzzxJCPGC32wdX15gVxzkeQQjXfHhcRoARiAwEmCBExj4EdRbVTBDOHTly5GcXXnihkhzgwm/YsKFyQ4Q0ARf30qVLlesiogIiGRFiHeCnV69eykgRxAExDlatWqUu90suuUT1A88EGC3CE6I8QYA04YYbbqDnn3+e5s6dqwgC/p8zZ476jfdnzJhByIMAwgESAbH7Pffc48zOzvY/RWJQd+nvziwWywIhxCU2m61lCLr3qksmCF7BxJUYgTqHABOEWrjl1UkQiEiMHz++5LHHHouGJACXMi55PLl/9913yusAMQ3wg/wDuMwRpwBBjaAGgCQBHgqov3HjRhUsCZ4LCKYEl0XUOfXUU/9BEOAi+eCDDypyACkFPCTGjRunyEZ6eroiCMh5AO+J7OxsRRAgUZgzZ84rNpvtukjZ8vT09IaxsbEFQghXdnY2gkjIcMyNCUI4UOcxGYHIR4AJQuTvkc8zrGaCgAv4t1mzZrWDJ8OyZcuUdACuiQizjEiHsC0AWYBrY/Pmzembb75RKYyRiAiujEhehEscBAGqgCZNmhxzW0SSIvR74MABmjZtmkp5DJdK1EVqZ5AJuDAuX76c4uPjFREBycAYCLQEqQUkEk8//bT7u+++S7HZbOt8BjREDTIzMy/Xdf09dG8YxjC73f7fEA11wm6ZIIQDdR6TEYh8BJggRP4e+TzD6iYIVqt11JAhQ1654oorwpKo6fvvv6dPP/1UqTjGjx//L7wQiOmhhx76Jjs7u7fPYIa4QUZGRnuTyXRFdnb2vBAPddzumSCEC3kelxGIbASYIET2/vg1u+omCJik1WrdNGXKlM4wCIy0AnuEtWvXnm+321dG2tyYIETajvB8GAFGwIMAE4RaeBbCQRCGDRvWsUWLFhumTZsWXVlOhnDBjARRy5cvn2uz2caGaw4nGpcJQiTuCs+JEWAEgAAThFp4DsJBEACjxWIZ2q5du4V33HFHNGwNwl2Q6OmTTz75765du7I++OCDI+GeT2XjM0GIxF3hOTECjAAThFp6BsJFEMpIwrn16tV76dxzz+2MvAswKqzOsMQwWETmSHgxbNu27eGCgoIZkUoOgBcThFr6IeRlMQK1AAGWIFSyiRkZGY1NJlNXwzBaCyGgVEeigXZCiOZSytiGDRuWT4KDmLtudON2u12HDh06SESIX/8XEf0uhNhjGMZvhmH8UVpauik3N/dQqM9NOAkC1jZgwICYJk2aWIUQQ+rVq9cxNja20kyPJ8AB5xJtFK7eFnhA7Nu3b4+U8muXyzV38eLF27xtG656TBDChTyPywgwAlUhwAThbwO7elLKM4UQl9evX39QYmLiqYmJiSptcMuWLZWbHX4jmA9c+E5UkIoYbnvw+Ud2QgT42bZtm3LJ27dvnywoKFhdVFT0jtvtXr5//35HKJ5uw00Qqjp0Vb2fnp6eGBMTc7ndbs+uqm5Nf58JQk3fQZ4/I1B7EajzBCEjI+P8hISE3NNOO63JZZddplIPh7qsXbuW3n//ffr5559/O3z48GWLFi1aH8wxazpBKAs/nG232/1OzRxMPEPZFxOEUKLLfTMCjEAgCNR5gmC1WnfPnz+/KUL6VndBroGxY8euttlsKcEcu6YTBIvFYhdCXLlnz57GoZCwBBPrQPtighAogtyeEWAEQoVAnScIWVlZ+/r06dPIarVWmkUwVMCXlJSosMT5+fk7gx2HvyYThEGDBjVo2LDhPtggHDp0qNnbb79dEKo9iIR+mSBEwi7wHBgBRqAyBOo8Qbj77rv3XXXVVY0QIhhGbggHjIyACOdblb2BL0cKoYI3bNig0iAjo2H9+vVp4MCBtGjRop3Tpk0LaqKemkwQLBbLuZqmfQZspZSP2Wy2R3zBuabVZYJQ03aM58sI1B0E6jxBuPfee/fNmDGjEYwL9+zZQwjLi58tW7YQkgLBbQ6BfzwGikgy1Lhx40pPCJIUwTgRvyEhAClAXgDkCECGQ9g3IPkQfho1aqTc/x566KGdjz/+OBOEcoiOGDGiRVRU1Kjs7Ozptf2jyAShtu8wr48RqLkIMEEoIwjH20K3262yAyK5kOfyx/+eAmLh8fNHpkJIHZBdEIQCRALkAq8frzBB+DcyTBCq9wuFczFUL948GiNQUxBgglAFQQj1RjJBYILAyZpC/Snj/hkBRsAfBJggMEHw59yEtA1LEEIK7786ZwlC9eLNozECNQUBJghMECLurDJB8H9L+vbtazp48KDIy8sr9bYXJgjeIsX1GIG6hQATBCYIEXfimSB4tyWZmZlthRB9NE1LkVKeS0RdiQihv4WU8n673f60Nz0xQfAGJa7DCNQ9BJggMEGIuFPPBIFo1KhRsaWlpd11Xe9lGMZpmqb1IiJE82qQkJAQ37FjxwYtW7Y0de7cmZo0aaI8ZWAcC6NYeNHcddddv73wwgsdvNlcJgjeoMR1GIG6hwATBCYIEXfq6wJBGD58eGtd15OFED2EEBcLIUqklE01TUts3759YtOmTRufdNJJKgcIXGQRNwPRPuEdAyJQVZk8eXLhhAkTyicVO24TJghVocnvMwJ1EwEmCEwQIu7k13SCgKd/l8vVviwDaBshxCmGYbQSQnRq2LBhy8TExJMbNWoU07x5c3X5t2jRghISEo4lBDuRW6y3mzVlypTC8ePHM0HwFjCuxwgwAv9CoE4RBKvVulpK+ZphGJ8uXLgwH2h4AiWF62x43BzT0tKikpKSzER0ERFds2HDhq6+GJqVn7/Vaj1NSnm13W6fRERGuNbm77iRThCQDlzX9TZutztR1/XWUkqkBU8SQpzctGnT0+Lj41shBgae+lu1akUgApAE4CeY0TlPhC8TBH9PH7djBBgBDwJhJwgjRow4Xdf1kWX61ZDujKZpYzwDSCl3SymfatWq1YMzZsyI9by+c+dOFXIZKZ4rinIRFAnFExgJfyOdsycwkj+THz9+/K6tW7eO1zTtCSFEgqcPwzBmB3K5CyHOEkK09WdO4WwjpTxCRD8IIdZGWiTF9PT06NjY2HdbtWp1MS5/pARv3769kgAgSib+j5TCBCFSdoLnwQjUXATCShDKnsS+Lykp6ZKbm+sONYxZWVmHpZQ7DMN4JicnZx7C/VeUINxyyy2Unp5Or732Gk2ZMoWaNWumIijCCAzhl0EOunTpQvv371f64BUrVqj3kL8B4ZNRt7S0VP2NcMv4QT2QC4Rehki5PPHwSBDS09Prx8bG3ktE1wohmq1fv76BvxKEUOMY6v5HjBgx0GQynW6z2aaFeixf+rdardPHjBkz7qyzzvKlWVjqMkEIC+w8KCNQqxAIN0FoL4QYk5OTc1+4UK1IEO6//36aNu3ve+mBBx5QT4YXXHABvfXWW9S7d28VPvmbb76hQYMG0auvvkrdu3entWvXUnR0NF155ZX0/PPP04gRIxQJWLRoEY0ZM4a+//57+vrrr+mOO+5Q7y1fvvyYFCIUkRTDhWWwxk1PT28ZExPzkN1uvy1YfQajn5EjRy6ZP3/+IHgKRHphghDpO8TzYwQiHwEmCBWMFMsThCeeeEJJB2JjY+mXX36hwYMHK3Hy4sWLqV27dvTJJ5/Q0KFDlWgZkgWoG/AeXkMb6J5zc3PpwgsvpHnz5ilSARXGPffcQ7oOd3UKSbKmyD92J54hbBB0XR/PBMH/nWSC4D923JIRYAT+RoAJQgWCcN1119E555yjnvofeeQRmjt3Lp188sn066+/0iWXXEJr1qxRKZt79uxJn332GQ0YMIB++uknBabFYqEnn3yS2rRpo1QKUDNA4gC/dCR7AmEAQbjttttYgnCCTyAThMC/npggBI4h98AI1HUEmCBUIAiwE8DlDrczSAVgsOhJ+exJ4wybAtgWwCId6ZxR0AbSBqSIhvQAr0PtAFsFSBjw/u7du5UEonxhFcO/P4JMEAL/WmKCEDiG3AMjUNcRYIJQC+Mg1PRDzQQh8B1kghA4htwDI1DXEWCCwAQh4j4DNYkgQOIE2xMUSJCgRvKl7Nmzhw4dOqSatG3blkwm07+aQ/q0adMmJbGCNMrtdlfpUskEwZdd4LqMACNQGQJMEJggRNwnoyYRBBihwq0VBaGR4dUC1RTUS7BNgcoJ9ioet1iorFAfZAKGqjCEbd26tWoPI1YUEACouPAb7fE31FPz588nuOHCQ+bNN99U7rhQd6EeSER5csEEIeKONU+IEahxCDBBYIIQcYe2phEEGK+iwPZk7NixdNVVV9Hnn39O/fr1I4RN/uqrr2jkyJGUmZlJMIJdt26dcqFF/WeffVa5wnrKU089pWJlJCcn07Jly6h///7KrRbGsSASF198sTJ4/e6775Qx7bnnnqs8ZS666KJ/2LcwQYi4Y80TYgRqHAJMECKEICBKX0xMzFghxGghRPP169c3rMOBkmqMmyMuZxABFERXvOuuu2jWrFk0Z84cdWnjqf7RRx9VsTSgjujQoYMKqgVJAwq8ZPr06aP+Pu2002jcuHGKCHTt2pVWrlyp+oGEAJIDD0FAMK68vDy68cYbVdwNeNjgd/kIn0wQatx3MU+YEYg4BJgghJkgPPjgg7u3bds2QwjxiBCivueESCkfE0LUuDwKQTrh9aWU5wkhlgWpv6B0I4QwVwyUBIIAtYGnQHIwc+ZMFfcCgbOWLFmionFCLYCLHBc/frp166aalJcgwDMG5MKTshkqCNgcIFhXTk7OPwgCpBKjR4+mp59+WgXfArkoX5ggBGXLuRNGoE4jwAQhzAShXKjluLi4uLOklAOFECPXr1/fkiUIkR9JEe6suNg9BRIDXPB4DSoE2BDA3mDXrl3KgBGusrj4PYGyPPU87aE+gF2Bx00W/yMvCFxtoa4A0YC9AUgJjCMRd+Oxxx77V94QJgh1+nudF88IBAWBOk8QRo8eXTB37txEGJVVd8GX/rhx435+5plnOlUYWwskUVN1ryPY49UkG4Rgr92X/kAQoFZAMK6KhQmCL0hyXUaAEagMgTpPELKysp7t1KnTNYMHD46FfhgW46EueCr8+eefYVx26M8//7zLZrO9GOoxa1L/tZkgeCQDx9uPwsJCZaQYaGGCECiC3J4RYATqPEHAEbBare2klFM0TftP27Ztm6empsbDkAxkAZIFzw/ExxDznqh4xL8wLIP42BN9saCgANbr8ocffji0Z8+eXVLKZSUlJY/m5ub+7UTP5RgCtZEgQNUwceJEFcugSZMmdPvtt6vzgfNSr149pTIAeUBSMNgUwKARr1cWF8Gbo8IEwRuUuA4jwAicCAEmCJWgk5GRcaqu61cT0VlCiF5SyhghBLIr4Ue0adPmGG5SSiGEkOjmyJEjtGfPHo/FmltKiRTWh4noMyL6qqSk5M3c3Nw/+EieGIHaSBAQw+Caa65Rdgkgjzt27FC2A7BPwG+r1apcG+GpABJaXFxM27dvV3ES/ClMEPxBjdswAoxAeQSYIHh3HrQbb7xR37x5sw41REFBwTExQqNGjcT+/fsVQUBp0qSJsXPnTrlr1y4jLy/PhTQN3g3BtTwI1EaCMHXqVOUCCQkCCiQFp59+upJOIf03yk033UR2u52++OILRTZh7AgvB38KEwR/UOM2jAAjwASBz0BEI1AbCcKff/5JL7/8soqH8OGHH9KQIUNoxYoVKnYCXpswYYKKjPjHH38ojwXEVli/fr0KsORPYYLgD2rchhFgBJgg8BmIaARqI0GArcFvv/2moiAirgHsWxCKGa+feuqp9PvvvysbBNgnQO2wefNmFRmxYvZPbzeOCYK3SHE9RoAROB4CrGLgsxFxCNRGglDdIDNBqG7EeTxGoPYhwASh9u1pjV8RE4TAt5AJQuAYcg+MQF1HgAlCXT8BEbh+JgiBbwoThMAx5B4YgbqOABOEun4CInD9TBAC3xQmCIFjyD0wAnUdASYIdf0EROD6mSAEvilMEALHkHtgBOo6AkwQ6voJiMD1M0EIfFMmTZpU+PDDDzfypqesrCzn+vXre9bV5GDeYMR1/EPAYrGYNU0707/W1dLKXVxcvDQ3N/evahmthg3CBKGGbVhdmG6kEgSr1fr4TTfd9MDZZ5+tkiRFavnrr7/owQcf/PHVV1/9Zw7o40yYCUKk7mTNnpfFYnmmd+/eo1NSUiL2w4Koph999JHx22+/DbHb7e/WbMSDP/uwblxGRkZ7IcSYnJyc+4K/NO6xpiIQqQQhPT09OjY29rWEhISuiK8dRHyDmr2zqKho75EjRybk5OR86c0cmSB4g1LNroOzq2lah6ioqFOFECcJIbpKKZsJIZpKKb+02WyPBXuFo0eP3vLUU0919KQ2D3b/weqvtLSURo8e/dnLL7/cJ1h91pZ+gvkl5zMmTBB8hqxONIhUghAK8IcPH95a1/WLcnJyXgtF/970yQTBG5Qiu056enpiTEzMSUTUXAjRTgjRWkp5qqZp7Zs1a3ZKvXr12iIIFzKFNm/enJo1a0ZNmzZVqcJfeeUVcjgcl9lstmXBXOXYsWN/nT17dodg9hmqvkaPHv3Tc8891zlU/dfUfpkg1NSdq8XzrksEISMjY7Cu6w/bbLa0cG0pE4RwIe/duH379jW1atWqkWEYDYUQCSaTqakQApdZz9jY2I7x8fFnxMbGxiACJyJ0nnLKKYoAdOrUSUXmrCoD7apVqxAG/D6bzTbDuxl5V8tbgoC8IxD1Y/6+loMHD1KDBg18bfav+kwQKoeQCULAR4s7CDYCdYkgZGVlfSGlTLLZbInBxtHb/pggeItUaOpB/E9EcUQEFVaclLI9EZ2t63r36Ojoc3Rdh2pAJfY6+eSTqX379ooE4AfZQQMtn332Gb300kthIwjPP/887dq1S+UjQejxwsJClaMEWrxDhw4pAoB06HgdfwMHEANPKnRggP/RFu3++9//0pVXXqlCl4N4NGpUta0uEwQmCIF+jrh9NSFQVwiC1Wo9WQjxi5RSbtiwISZcXgRMEKrpYBPRoEGDGtSvX/9sk8l0vmEYsPC/yDM6RP5JSUmEjLHdunXzOw+Hr6sJJ0EAAXjkkUeoVatWdM8999B9991HFouF/ve//ylpyGmnnaaSnCEL6tixY2natGkqbfq2bdtUbpNzzjmHzGYzTZw4kc4880xVH9lQL7vsMkKKdSQ9Qwp1vH6iwgSBCYKvnxuuHyYE6gpBsFgs12ua9iJgNgxjkt1ufzgckDNBCA3qw4cPT42Ojn4H0gFN02K6dOkS26ZNm+jOnTvTSSedpETqeAqGdAA/VakCQjNLonASBGQ2fe2115Qk5LbbbqPp06fT4sWL1VLnzp2rSIHL5aILL7xQZT+1Wq3qsr/55pspMTFRkYHU1FRFGgYNGqRwReIzYIx+IHHp3r27ypgaDoIwatSo2NLS0ms1TetORCG3xxBCuInoV7fb/enRo0ffzc3Nxf9+F1Yx+A0dNwwVAnWFIAA/GOqaTKYrsrOz54UKz6r6ZYJQFUK+vz9s2LCObdq0WT9u3LgYiLghFg+u44vvczpei3AShClTptBDDz1E8CQYOHAgXXrppRQXF6cMKA8fPqzUCiglJSXUsmVLlQF16NChlJubq1QHkBqcfvrp9NRTTymSgbboq3fv3pSTk0M9e/ZU/YJMVCdBSE9PbxYbG/tely5dzBdeeGEU1gMpSKgL1Cyw6QBOy5Yt23fgwIHFv//+++0rV650+TM2EwR/UOM2IUWACUJI4f1X50wQgo+31Wrt07t375WjR48OfudB7jFcBAGXWVFREdWrV0+t6MCBA8rGYOfOncrTAu8XFBQc+3v79u1KXQC3SbwOFQQKpDB79uxRJKC4uFhJY9AW9gf4H5dzVSWYKobMzMx+jRo1evP6669vmJycHDZiCKIECc0777zzXVFR0ZDFixfvqAqHiu8zQfAVMa4fcgSYIIQc4n8MwAQh+HhbLJa+ffr0WXH99dcHv/Mg9xgughDkZQTUXbAIQmZm5lktW7b84uGHH9Y9BCagiQWhcX5+Pj355JMb9+zZc8Z7771X5EuXTBB8QYvrVgsCTBCqBeZjgzBBCD7eTBAI9gM+x0HAkz9+qtseIxgEAbEomjZtumby5MltqlJpVHbiPNIPSD6CrY746quv6LnnnvvUZrP18+W0M0HwBS2uWy0IMEGoFpiZIIQQZiYI/hGE9957j3788Ue699571e5ABQHbAthv4G/YGKxcuVIZHiLWA8gE7BNAKGDnAddGGDXCANQXm49gEISsrKxnhw8fPnrAgAH/OlkXX3wxtW3bljp27Ejjxo1TahLM1WObgjm/9dZbypgSqhZ4sniIElQFqIf/4e6JtX7++efUq1cvRSTg0YHXoH4p32f5SaDttGnTjHXr1p26cOHCX7w9+kwQvEWK61UbAkwQqg1qNRBLEIKPNxME/wjCqFGj1OUI74U1a9Yod0c8WV999dX05ZdfqgsSuUZw4eIy3b17N8HQcf/+/fT000/TpEmTVLTIwYMHK+NFb0ugBAHBrHr27Fk4ffr0SqM9vfjii3TttdfSd999pwgPiBAu/R49eijSY7PZlHHlo48+Slu3blXRLS+55BJEuFRrhvEm7DNgeNm/f3/Kzs6mu+66S7l5PvPMM6oOpBbr1q1TpAGuoxUJEgw+b7vttl02m62Ft7gwQfAWKa5XbQgwQag2qJkghAhqJgi+EwRY399///0q/DNiG/z55590ww03KIkALsNZs2ap3cJlO3z4cHUhwljxjjvuUJfi1KlTVZCkTZs2KaLgTYAkz/YHShCsVustw4YNexrxFyorIAcIcAXJAeaLQE7wtPjll1+UK+Zjjz1Gr776KvXp00cRBKzjueeeU6QCrpsgAFjP3XffraQE+D1z5kxFLj7++GNq06YNzZ49W2EDuxd4dVSMTIk+rrvuOvTVNDs7u8Cbo88EwRuUuE61IsAEoVrhZglCCOCujCBAFI4nRERAxJc3AgKVL9988w2dddZZx51NXl4eLVmyRImqETEwIyOj0rr79u1TT6e4aDAOohQidsDxjOYixUgRaoU777xTzRmXI8TxIAHQn3fp0kXhBikC1gHxOiQEMMDbu3evkjRA+gD1BC5hEAbETvC2BEoQsrKylk6YMOEyhLeurCDYEy57XNwgPSAIb7/9NmFPP/nkE0V4IAEBecC+ffTRRzRjxgx1XkCO1q5dS6tXr6arrrpK1YNUBWQKobQRHwL7DakEXEYhbcHfnkiT5eeDMd98882eOTk533uDDRMEb1DiOtWKABOEaoWbCUII4K6MIOBLHf776enpSmeM8MAIEgS3PIjM33jjDSVK/vrrr9WT4bBhw9TlgEuza9eu6qKEfhqiZxRconj6hFEbSAMuS8QOSEtLU5cnnk5xeWAcPJH/8ccf6mJatGgR3XLLLcdWHQkEATry9evXq3lDNA6XRtgYwJ8fT8dQG0DlANIA7EAK8GQN6cKGDRsUAYLEAf0gOiMIRWUX5PG2OlCCYLVa17/wwgtJxwt9jaiPkCBAzI/5Yc+x3jPOOENNyel0KndOrAm2FnD1RDRNkAVgAVUEcEE9vO6xvQA2nrgHOANQSeB99FVZAXm8/fbbZ9rt9nHeHHsmCN6gxHWqFQEmCNUKNxOEAOHOzMxM0DTtQyJ63zCMt3NycjYcjyAgVPB//vMf9RSMyx0XPi48kAdcdLjscTmAIOApGRKDhx/+O8AmCMIHH3xwLAwz6nkuF0gUoLfHkzMIBggBCMI777yjnjLxhApyggsJT+IQ43tKMAhCVlbWJsMwlggh3rXZbF8hOKg/XgwBboXfzX0hCFar9SciWuZ2u99buHDhp1jrLbfc8vvTTz+NbJoRX6655polCxYsuMKbiTJB8AYlrlOtCDBBqFa4mSAcB26LxTJICNGTiKJOtCNSyhhN0+7w1DEMY7lhGIvOP//8V8vHQQAJQH4AGJmh4CkPBAFPunjyx9P+qaeeqp708RSIH9SHvtlDEDwSBBCJ888/X+UmWLhwodJnw4gNT594qixPEDy5HfDe+++/T48//vg/llNGED4WQnwZwMl71NNWSvmb2+0e07Jly2dnzZqFxFNhKZAugHx54zI5evTogqKioqe8nGj5tf7hdrtHtWrVKvuJJ55o5WX7sFa7/vrrP3755Zf/PoRVFCYIVSHE71c7AkwQqhdy9mL4N95IpEVEt9tstrFV7UZ6enrDuLi4tVLKfCnlbLvdvrIyCQKMxCAG9xSEDsZFD9GxRzQO/TsM76BHb9GihRJJe4ztYMOAPjzGZxAtewgGohFCFA1ygDqQJMAqHqQAxAFW/hDXw+ofOQvKlyBJEA4T0WbDMBYXFhY+hYA8vkgQqop/gPdRgBXWh+K5+D2ubP8jzQAAIABJREFUf3gNf6MOfmDTcPvttyuxfVXFFwlCVlZWgZTyRynla3a7/WUict9xxx3b5s6d27aqcap6H/P/+eefFVFEgQoKRLBdu3aVNoWECN4cvgRluvbaa5e++uqrA6uai8Lbm0qhqoM49EKIMTk5OfeFagzut+YhwASheveMCUKlBKGPlLK13W5f5M9uRJoXA6QXUD1UlrQoGASBiHRclOWx8pYggPjAgA92BXDvg94dngi42GGxj7kvX75ckahnn31WJWoCOYD0ZMSIESpZE/4GIYLhJ/T7sNuYPHkyPfHEE3Q8w8Hyc/WFIFR2HqxW64+vvPJKlxPZPcD2A4aGsBWAoSJUQiBvyEQJDw1IkWB4iqyWCJHsIQh9+/ZVXg0wwHzyySeRY4G+//57RQYhhQJ5gPHmr7/+qlweTyQxAZY33HDDMzk5Obd6c66ZIHiDEtepVgSYIFQr3KxiqARu5FKoTQThRCcqSAThX0N4SxBABhDb4LzzzlNPzJ5IgrDMh50FAgDBuBK2GHiyxkUJCQkufngvgFRAYmC325WNBYwA0Q5GjQ888IBXH6YgEITlkydPvuh4T/qYBNwSQQpwiWMdsEXB2nFpQ00Ew1Fc+s8//7wyZIWqacuWLcqGBJIFJKZC/AOsC2QDeAAb9IVcFFg7fkPddLwCl8js7OzzIeXyBpiwEQQwbE3TsomogWEYK+x2+5XeTJjr1H4EmCBU7x6zBCEyJQi4FCZMmKACAXkKXoPYfM6cOepJORgl3AQBFv4wxsTTMyz7cemfe+656pKHigRPyUOGDFEXIgIgwfgSNhZ4UkbsgxdeeEHBADdRqF2gloF7JKINViNBeCArK+vxE7lWwvYDURSxdyAH8EzxeKxAqrB582Zlj4J1wHsFxAE2IzBmRQprBEVaunSpcoHEb6wNnhEgCCBV+A2ihXqVFUhgbr31Vni1tLDZbLu8OTthIwhDhgxp3qBBA2WGW1paOmDRokV/y1T8LAMHDoyvV69ekq7rppycnG/87CZozSwWy7lCiEullHFB6zT4HW202+34dP2t4POzWK1WJFu/GMZafnbxj2ZCCPTTSUq5Phj9lfWxrkxfGNBaMzMz++u6fpFhGEH5dhZCIPJaKynlz8Faq6Zpa7Kzs1/xtj9fCMKoUaNaut3ua6SUXkdj83YewaonhNip6/qrCxYs+MvfPiNBgoAvfYjeR44cqdzbIILOzMxUlwdcHPE0Cbc1XJwVg+L4su5wEwRcXHgqhjsm4kDATgPrATnAb1z6eFLeuHGjugQREwBEKSUlRf2N354C0TuIA9QOePru3LmzV1AEKkHIyMho3KlTpz8nTpx43O9A7BncMeGhAldUPM3DLfLss89W+4v9RnpqeKtAmoICMgRbFOADPEAsoE4ALti3K664QqkpgCF+g1Qcz8UR+N5yyy37S0pKmubm5v5DHXQ8kMJGEDAhq9UKUnDO/v37W1SVZcpisbTSNK2rlBKGIJ2FEC2JqJ2maS3atm3bNiEhoQkOEQD6/PPP383Ozh7s1ckIQSWLxXJ2UlLSin79+kVDTBaJBQcKzP2tt976ymazVU45vZh4RkbGecnJyZ+cf/75pmA90XgxrE9VsFZ80JYsWfKxzWbzynq3sgEyMzMHpKSkLO3bt6/mi4+1T5MNsDLWCmO0pUuXLrHZbF65MnlLELKystrEN2i42nzR4CZx9RsEONPQNS8+dJAcHy8pKDpYmJydnf2HPyNFEkGAUSH8+iFax1Mngu3gKTErK0sF2YGu3tuLsDIswk0Q/NmfYLcJlCCU3Wc5N910U8bxnuDx5I94F4EUfL5/+OEH9RkHmfDGvgLjod2LL75orFq16vyFCxd+5u0cwkoQsrKycIlPKy4uNuu63kLX9WZE1EII0VrTtFOklEkNGzZsV69evW4JCQk6gmXAfxd6GoiQ8MHAa+VjTgOIe++9d++sWbOaeAtCsOtZrdaXHn/88esgNorkAqzuu+++AzNnzmzo7zytVuuiOXPmDIeeLJJLMM7FyJEj33j22WeHBvK0Vh0YYa333HPPztmzZ4NEV1m8JQggSKf1Om/ZuVdmVdlnuCt89e5iWv/VJ0Psdvs7/swl0ghCcnKyipMAkTIM9RAtD+6LMGYbOHDgca3cvVk7EwSiYBAEi8XSqWXLlj9MnDixYaR9R+DsTJs2ba3NZuvhzZnw1KkOgiAGDBjQoHHjxo2llPV1XU+UUrbXNC1N1/Ue9erV+09MTEw0An1A9IJDD/cf/IZEwJ8n8KlTpx568MEHw/aIY7VaX5s+fXpWq1aR7xY7c+bM4nHjxlWaYMSbg2S1Wt+YN2/e0PKBV7xpF446gZ6LkSNHLpk/f/4gnNNIL1OmTCkcP358I2/m6S1BsFgsl3U7p9/S3gOHe9NtWOusXvUhfffBmxa73Z7jz0QigSCA6EFCgO/Cpk2bKnUCvieRkAc6+tdff109JOFvXzIXVsQj0ggC7AoQ2Am698rKt99+q6QpiC4IiQpwwV0RSAkGQcD4mZmZV3Xq1On1Bx98UPPn7gpkDcdru2PHDiRv2vXnn392ff/99/f5MkbABCE9PR3uLfjGhCw9Ljo6OpGIztQ0rVd0dHSKyWTqCdEzRLLQpSBUpkck5rlUAjnclS020IvAFwArq8sEIVAEQ9M+0HPBBIEJgrcnM9LcHE8070giCLDCHzNmjHJRhOEiiBFsMECUoKeHgSYIAnTyELEjXgRc/6B3nz59OvIMqFDUvsQFADbBIghlJOHaFi1aPPfII49EwS4g2Pebt2cQdhogUrNnz95dVFR03qJFi370tq3fEoQRI0b00HW9vxAilYguFEKooM/YKBiLQKyOXN0QhYWLQQV6EfgKYsX6TBACRTA07QM9F0wQmCB4ezKZIPiezdGD7dy5c1UcAxggIrQ0pAn4fdNNNylDPpAAeDhAsgKjP0SghLQBng2LFy9WBMPXEkyCUEYS2uq6vg3GkojNAKJTnQVSppdeegmxJb4oKSnpl5ube9Sf8b2WIKSnpyfGxsb+Onz48ASIdRDdyyMZABEAQYiUEuhFEOg6mCAEimBo2gd6LpggMEHw9mQyQQiMIMDGDB4LcANEBkOQAsQJgDph1apV/yAIkC7ceOONyn0Q6hbEC/C1BJsgYPy+ffuaWrRocUpUVNT1UVFRp4tqEiVIKd0ul+vT0tLS1xcvXozQnX57bnlNELKyshZMnTp1ZKC6Hl83zp/6gV4E/oxZvg0ThEARDE37QM8FEwQmCN6eTCYI/hMEqBJwzyAzIZ684QqIENGIlNinTx8VEwAuf1AjoB4IwmWXXaaCKSFYkj8GgqEgCN6elUiu5zVBqElfjoFeBIFuGBOEQBEMTftAz0VN+gywkWLNN1IMzafg371Gkg2Cv2tGTgJEMYSawZ/CBKFy1AIiCPCjR7IQFNgdBFqQpAQlUJe5QC+CQNfBBCFQBEPTPtBzwQSBJQjensyaJEGAyP7ll1++z2azzfB2fd7U8zbUsjd9hboOE4QQEARYjXqiWCEABCJXIeoVgnog5CPcdBD9C6IhGJFs27ZN6ZXg0bBr1y5q1qyZCi+JIB+oj0ASAwYMUN4O+B/ujugTbVEPXg9og/jVEDvBSAVWr/i7vNVqoBdBoIeRCUKgCIamfaDnggmCfwSh4K8d9PtPG0jTdTotrTdFx8RWucFFhw5SfADBmMLt5mi1WnslJSV9c99994XNir1KkMsC6CD/wYoVK9Kzs7Pf8KaNt3WYIHiLVOTWC0iCAKMQxMhGgXgHSSgQ2QmEAJc9XFJuu+02RHCiSZMmqTSjCHKEMJNvvfUWjDhUrnOEoET8bQRzQIpOlHnz5tEdd9xBw4YNUzG6QRYQghNhNNE/jFXwOixWYfXqSYmKtoFeBIFuFxOEQBEMTftAzwUTBP8Iwhvzn6ChN99NB/buoZ/Xr6atG9dQ85M6UKt2p9Dm1T9Q0hm9qXHzlvTd/96nJi3bUGKL1vTtx+/RBUMtlLfiQ2reth2lnnuhT4ci3AQBk7VarW8nJCT0iY+P9/p71otFgl2VeFHPqyolJSWysLDQkZ2d7RvAXvR+++23/zJ37tyTq8k2z4sZVV4F7oA333xz/osvvgjPPC7lEPD64Fb25YhLHLHCPQU5x+Hm+PLLLytJAqxOcYkj29bbb7+t4ksjRCSIAdww8vPz1WvIvgV/Ubi1XHrppf8gCEOHDlWuK+gDebLhPokCDwpEEHv33XeV+0v5EuhFEOgJYYIQKIKhaR/ouWCC4DtBOHqkhL5c9hadPyTj2Kbef/WF9JhtKb35/Gy64trb6OP/vkaXWm6kg4X76L0F82nE7Q/QptU/KJJw1c13K+LQd8gIior2PtVHJBCEUJxii8Vyr91unxmKvoPdZ1ZW1kdDhw7t369fv2B3HbT+4DaJB9S1a9febLfbnw9ax7Wko4AIAiQGIAEoUCdcc8016qIHaUDCifIEYcGCBepC9xAE5PmGf6vNZlMZup5++mmV+xvRsVByc3OVmgHEAlmwkIQDEaGQrGT+/PkqMAbEdxCPMUHw/zRyJEXvsWOC4DtBwPfCG/NnUvqYcXSocD99+cHbtGrJYpqc8wEtmPogpd96HxmGm75dvpTS+vSn/z49na6fMEMRhO8/eZ8utdxEMfHx1LBxExKa5vVm1VKCoFmt1t9tNltkx3Av26VRo0bFulyuQUKI4+cf9npH/64ohOgupUQSrt0+Nq20uhDCZRjG23a7HQn+jGD0WZv6CIggQNRfPkEPLniXy6XcTDzvlZSUqNzdeB2xEvCF4YmZACkDYiigDl7z/HgIB+wX0D/qQMqAELewX4CLC37jPfRbMUlQoE+KgW5wRQkCjC9BgDwFxAZ2E3l5eWruSHEKkuRxz0F9GH/C9gJSFgQDAYbeFGQ8Q31PgSEpcofff//9lTYPJUGA2giZx7p166bckLBmT8HegvwhiIinYI+Bx/HWunz5cmUMe6IQ1h7blcoWG+i58IYgIMMeIrmVz6j24IMPKpKLgqhv1113HdWrV09J0WBBfrzALlDTeWKOIHoccPTWzTiSvBh2/fE7rfv2C9JNOvW+eDC9+8rTNPTmu2jrj+tp66Z11LFbKsXGxdGG77+mDqd1pwaNGivVQ+fkMyj/i0+peZt21P2sv7PbeVtqI0HIzMwcouv6W263++KcnJzl3mJRm+plZWXd5Ha7HTk5Od/XpnVF6loCIgiRuqiKF0F6enrLmJgYy8aNG+fl5eWVhnreFQkC/HaR2hPZ11BAbiDWAhG44IIL6I8//lBEABIWpDtFfUQKQ8CP9957T6lhFi5cqKKI3XDDDerCR85zSGCQ2QvGnzfffLPqGwacsOVAH2eccYYiIQhtDZIFQ8/+/fvT6aeffgyCUBIErBEEAOtEznYQI/gpgwhC9YTXLrroIiVtguQIYUEhgYLRKiRGWD+S1KCAcD722GPKBmXixImqLi5Q2KgAPwRUwcX80EMPqX6RxKtiqQ6C8MQTTyjjWQR3gXU4CBsivYEgQlX23XffKVsdGNWCNCDSGvDAekaNGqVUczk5Ocrfe+/evUplB7KB8wE1G2x+gAlwwn4i/WtlJVCCMGrUqEZut/uCbdu2vbty5UoXxqhjuRguNQxDy8nJWRrq7wtv+7darYuFEMMMw1hkt9v/X2fjbQe1oB4ThOrdxJASBFxy8EgoX7Zv364uq8pyVuOJCk9MgabSnTp16uHVq1efGR0djWyRMGroLYQwgXlrmnakGiB+YPr06Rd7nnRxWcNeA5c/Ci5sPEHiMscT4fvvv68ugtGjR6v3KxIE+PYiNjlIAIxAccHgtdWrVyu1zLhx445JZT7//HOk+qUpU6bQrFmzVK5xEAWoYaDmwesTJkyoFoLw/PPPqzjqkBwgdCouNlyGIDqYEyQCkDCMHTtWxV0HWYJXDP6HgSvmCWKFNqgLYyfYqcDwFaomXLiQkGC9119/vUrpDBKBJDaVlVATBJAxSD9glIuEM7Nnz1brhsQA+/bwww8rggeyAIIA8nf55ZcrdRo8dEB0QChAgH799Vf69NNP6cILL1Ruv2+88YYiTUj1C4IIY1/EokfEucrK5MmTD2/evPkyL8/6S4Zh3KxpmiICKGXp1BcT0UEp5buGYbwnhNC6ndNvYU1J1vTDR29Pl1Ku8BKD8tWihRBD9u3bd2tVaej96NuvJmlpaVFJSUk7hRCNiWhzdnZ2F786quGNmCBU7waGlCDgCxveDVAD4CkSZAHiVlx0yEoG61F4J6B4xPB4yoS3AgiERzUBsbMvoZxBENatW9dH07RrhRB4xEKYS11KebUQwq+Y1L5si5TyjunTp59fniDgKRKXJQqemKFOwBMgiAEIAkiDRwoADw0E/oCEAB4auCwPHjyoLkK4gSIuOdxKi4uL1d/w9vAUEAREIMNraAuPEVzGIB+IzY2nVlxUnhJKCYKHIEDaAYIEETkuO1yW2H9IE4AFxO6IlIZ9h4ssiAHIDexVkFsdUoNp06YplQuwwRM6nqZxUYJMwVAVBAGXKggQXq9uggDSA4Na7BnUQ1gHJAggCCAFSFIG3DFPpOv1EARIChAmFnuFeYNUox7WsnLlyn8QBEiLgCnWjs+Uh1AehyAU/fTTT149ZUop5xDRPUIIt6cvKWVzIcQLRFQkpfzKMIx3pZT7e5x7UbYvBAGGhxt/+Fp126hJM+qcUnkY3J3bf6N6DRLoz99+Ibg4dklFIh4TRUUjB5zvBSqG7z98a44QYpWvrQ3DcBUWFq6IFHJQfv4Wi2WG3W4f5+uaakt9JgjVu5MhJQj44oboGO6QuAjxNIRLwXPJ4akJhoz4jS9TXBYgBRCfQpoAsoCnXlx2eOL2tlR8Urzyyivbx8fHP1BQUHDHBx98EHIJQkUVA/Tid91117Hpw8jykUceUZhAxI5LHd4buNghmkbBZQ5SgQsHagFc7BCz4/KACB0XI560cYngadpT0AfE1RDhQ1QNewRIG0BCoPNHm+pSMeDCw1My5nDrrbcqSQLWgb2EFADx1SFVwIWHMKm4VKFKgZcLXsMaIAGBzQn6gToBGMAVFpcxnrzxN9aL9QFjqBpgp5CUlPSv4xJKCQJIAWwusA4UrB0SD4SNBcHBesePH6/IDVx7gQHOPGLHAxMQRkiD4AoMCQPWDolCr169lAsvJCme/Ccg1iCHsOs4XglUxXDNNdc0c7lcV2/YsOEFj1rOHxXDrz+uo6KDhXT6meeoqR4q3Efbf9lMbU4+leLrJ9DObVvJFB2jpIYwVlz/3ZfU+uROtDHvG2rfOYnadOxMic1b0W+b19PJXb0PxhaoDYK33zXVXY8JAtsgVOeZCzlBwAUAvSpE6RCpI00nCAECJuFLEl/oI0aMUAGVIEKFjhYic3gn4PIEWcCPLyXQi8CXsSqry26OgSIYmvaBngtvjBRDM/P/7xVkCLYdkDicqARKECrr21+CsHXjWjrl9GQV+Gjvzj/ppFO70sI5k6lTDzN1Tj6T9u76k4oOHqBTknooY8b8L1dQcu/zKKnnfyhv5UfUrde59OdvP1OvCy/3Gl4mCF5DVaMqsgShercr5AQB4m14KUBl4CEIeCrE0y30p55UmB6CAL06RMl4qsbTLhOE0B6IUKoYQjtz33uvDQQBXkAoVQWfiSSCcGDvbupqPos0TadnHrqVbnh4Jr006T7q0PV0OmfAldQwsSk5v/ikUoLgWLWcomPi6PwrM5QkxtvCBMFbpGpWPSYI1btfISUIEIPCIBH6WYgQoTeFiBiSA+iS8WXnMbKC2BTvwdYA9gggBlA34IvQly8GwBfoRRDoFrAEIVAEQ9M+0HMRCRIEb5GJFILw1++/UknxYerQpZv6vK94e6GKh+B2ldJZ/QfRp2/lULvOSdSsVVtq1f4Ugkri53X5dN7Aq2ij41vq3utcFUjp6lt8U7szQfD2pNSsekwQqne/QkoQqncp/z9aoBdBoPNmghAogqFpH+i5YILge6CkQHfSNmsiXWq5gZq0aO1TV0wQfIKrxlRmglC9WxWxBAHSBwRG8qcEehH4M2b5NkwQAkUwNO0DPRdMEKqfIPh7Epgg+ItcZLdjglC9+xMSggCVQmWqAagRUDwqA/xfmfoAokhEF4TFN1QTsH6H+gF/V6V7ZRWDbweIbRC8x4sJAhME709LaGqyFwN7MYTmZFXea9AJArwQEKgGtgQIfAM3LUSEA2mA61pZ5iwVSAZ1EGYWLmpw58P7IAOQHMBPHr7i8I3Hb49dwol8vz1LDPRJMdANYAlCoAiGpn2g54IJAhOE0JxM73tlgsAEwfvTEnjNoBME+KIj6h8C+CA4DHy9EfQFQYIQFwEhcOHyuGXLFhXfAAFx4OWAkLG7du1SCZoQ/wDR6BBlDsaKVqtVxQJApDpkiqyqBHoRVNV/Ve8zQagKofC8H+i5YILABCE8J/f/R2WCwAShOs9g0AkCgvhAaoDALiAAiIqHiIKIIAeCgPcQEAaRApFACEFjEAcBYXMRJAhJadAO/SA3Aco999yjwgtDOgGiUFUJ9CKoqv+q3meCUBVC4Xk/0HPBBIEJQnhOLhMEDwJsg1C9JzDoBAG2AkgehMhwCKOMMLtQG8BlEXkYoGpABMH9+/ersLtwd4QKwfMbGf3g+oj3IT1AX4ihAMkC6leWhKciZIFeBIFuAROEQBEMTftAzwUTBCYIoTmZ3vfKEgSWIHh/WgKvGXSCEPiUAu8h0Isg0BkwQQgUwdC0D/RcMEFgghCak+l9r0wQmCB4f1oCr8kEIXAM/9UDE4QQgBqELpkgVA5iVlaWc/369T2rSoXuT6jlIGybX12wm6NfsEV8I1YxVO8WeU0QRo0a9eYzzzxzJVQHkVzgIvnQQw/tnzp1KtKihqVYrdaXp06dei1S8kZyAVbjx48/9Pjjj/uW7KLcopCjfu7cucOOl3Y4UtYfjHNRkz4D999//54ZM2Y08wZ/bwlCZmbmgKSz+i77zxCLN92Gtc63y96g1as+TM/JyXkjrBMJ8uAWi+UZu91+S5C7rTHdMUGo3q3ymiBYLJare/fuvahPnz6aN7EIqncZ/z/ajh07yGazfZmdnY00z2EpVqv14tTU1KUXXXSRydcw0dU5YXiNvPLKKw6bzZbm77iZmZmX9+rV650LLrhAr+3noqZ8BmC3k5OT87HNZqvaopeIvCUIVqv15AaNm+SfPTgzQTeZ/D0yIW/ndrnoqyU5Bw7uK0ix2Wy/hnzA4wxw4403Rh08eLCjlNK/iG8V+o2KikomIrPNZrs9XGsK97hQsUgpF+Tk5GwI91zqwvheEwSAkZmZmSGEOEfTNJ/aHQ9IKWV9IuoghFgXLLANw/jTbrdPJqK/s9qEqVgslkFCiP5CCO8zzJxgroZhoJ96mqYdDOKSdmVnZ08MFKvMzMyrNE3rG8y1CiEaCCEKg7XWYJ2LYH8GEDdMShkvhDgUxLVut9vtU73dV28JAuaXkZHRXtO0sZqmRQdrvsHuxzCMo4ZhzFm4cOFvwe7b2/7S09P1uLi4L6SUpUS019t2J6onpfzJMIxlweirJvahaVozIcQAm812TU2cf02cc1Auen8XXvZlk2W32yf520ddaZeenp4YGxv7mM1mu7W2rzkrK6uNYRh32O123zL01EBgLBZLFyFEhs1meyRc0/eFIIRrjjVtXIvFkqxp2qLs7OzTvSVqNW2NPN/ajwAThBqyx5mZmUN0Xc/dvXt3vQ8++OBIDZm2X9PMyMiwmkymudnZ2U1r+5er1Wq9Wwhxa3Z29sl+gRWERkwQggBihS5AEIQQV4aT+AV/VdxjXUPg/9o7E/AmqvUPf5N0p7RsZSuL7PuugKBQuVwElFWLUJJSVr2KishfLiCbbCqyg2hBliSlYkDwiiIqO6hsIgjIIlhbLPtWWrolmf/zjdYHobRJZpJMkt88jw9IZ77znfecZt6cOXMOBMFLWlyv1x8TBKFRXl5e9Mcff5zuJWk7laZer/9FEIQa2dnZpc1mc7ZTQbzgIh6GDgkJuSgIQrDBYIjwVMoQBOXJsyAQUW+TycSP8HCAgFcSgCB4QbP179+/clBQ0B+cqiiKE41GI8+x8MmDJ8IJgnBOFEXRYrG0T05O/t4nK/rn8/zWAQEB+7iuNputWVJS0s+eqCsEQXnqEATlmSKi+wlAENzP3OESY2Njo0NCQkYKghAjimKy0Whc6HAQL7ngL0F4URTFNjabbVZSUtJmL0nd4TT1ev3DPPeXiJqJojjLZDJ943AQBS6AICgA8Z4QEATlmSKi+wlAENzP3KkSY2NjI4ODg6ebTKaXnQrgRRfpdLpKgiAMNxqNb3lR2k6lGhcXV1Oj0fQ1mUzvORVAgYsgCApAhCAoDxERPU4AguDxJrAvgZiYmICqVaueFkWxi8ViuWPfVY6fJQiC1WKxXL1y5YpQpUqVKIvF4tYX3q1WqxAcHNyHiA5YLJYUx2vgPVdotVpeU2Rgbm7uarPZfNFTmUMQlCePEQTlmSKi+wlAENzPXFaJer1+qCAIPLvfJYcoimWIiF+9C7DZbBc1Gs0ZlxSEoDyfxGKxWEzJycmXPIkDgqA8fQiC8kwR0f0EIAjuZ676EnU63TNEVMOTw96qh+RDCUIQlG9MCILyTBHR/QQgCO5nrvoS9Xp9R5vN1igpKel91SeLBGUTgCDIRnhfAAiC8kwR0f0EIAjuZ676EiEIqm8iRROEICiKUwoGQVCeKSK6nwAEwf3MVV8iBEH1TaRoghAERXFCEJTHiYgeIgBB8BB4NRcLQVBz6yifGwRBeaYYQVCeKSK6nwAEwf3MVV8iBEH1TaRoghAERXFiBEF5nIjoIQIQBA+BV7JYXkRJq9WWUCpmUFAQr2JYzWKxmJWKmZOTc2fjxo03lYqHOMoRgCAox/KvSBqdTtdcEIReRqOR92KwKV4CAoKWJS/4AAAgAElEQVSAGwhAENwA2ZVF6HS6dlptwLfRdRoGCVqNK4tyOrZotVH62V/yLfn5A0wm00anA+FClxCAICiLVafTzRAE4RVeS8RiscxYs2aNz+6doiw5RFMbAQiC2lrEwXwSEoZsGTDunS4hJcIdvNK9p+dm36HkWW/sW7nio7buLRmlFUcAglAcIcd+rtPpYjQazXbehCszM7Pihg0bLjsWAWeDgDoIQBDU0Q5OZzF8xAt7dZPmtXM6gBsvXDd3UvqiubOj3VgkirKDAATBDkgOnMLbeIeGhv5GRBqDwVDFgUtxKgioigAEQVXN4XgyXiUI8yalL5oDQXC8lV17BQRBeb56vX6SIAidDAZDjPLREREE3EMAguAezi4rBYLgMrR+ExiCoHxTDxw4sK0gCB1NJtM7ykdHRBBwDwEIgns4u6wUCILL0PpNYAiC/U0dFxdXWqPRlBVFkf+MEkWxikajqSOKYiUiCgkNDS3YSC2I/5+IMjh6Tk7OTVEUswVBuCqK4jmr1XpOo9FcIaJrVqv1ZnJyMv8dbzvY3xQ40w0EIAhugOzKIiAIrqTrH7EhCA9u5x49eoSFh4dX02q1r4SGhuqCg4NLhoaGUp06dSg6OpqqV69O5cuXp8jISAoKYid48GGxWOj27dt09epVOnfuHF25coWOHz9OWVlZlJuba8nJyTFbrdYleXl5x8xm8y3/6H2opZoJQBDU3Dp25AZBsAMSTimSAAShcDx/ba2+vH379tS/f3+KiIhwaU/Kzs6mL774gjZt2kQ2m22N0Wgc6NICERwEiiEAQfDyLgJB8PIGVEH6EIT7GyE+Pr5z48aNvx45cqTAIwbuPPLz82n37t3iypUr3zWZTP91Z9koCwTuJgBB8PL+AEHw8gZUQfoQhPsbQafT9StVqtTaIUOGUIsWLdzaSmlpabRs2TJKSUn5zmg0tndr4SgMBO4iAEHw8u4AQfDyBlRB+hCEwgWhbdu2awMDAyk1NZVq1apF9erVk+YcVKxYkbRarWItx3MSUlJS6PTp0/Trr79SeHg4NW/enFavXr3XYDA8plhBCAQCDhKAIDgITG2nQxDU1iLelw8EoXBB6NWr19pnn32WeMj/2LFj0g384sWLdO3aNWlCIv9XtmxZaYIiP4YICAiQbu6FHXfu3CGepJiTkyNNVLx8+bL099zcXGluA0sHT3xs3LixFIMnMI4ZMwaC4H2/Tj6VMQTBy5sTguDlDaiC9CEIRQvCg5qIb+43btyQbua3bt2SBIDfSOBDFEXpP43mz/1RWCB4NIJv/iwV5cqVo7CwsAe2PgRBBb8YSIEgCF7eCQoThOuXLlDpqAokaDR069oViiwbpWgtb9+8TiFh4RRYxGtd+Xl59/18HVZSVLQdlAoGQXBOEJTiX1gcCIIr6SK2vQQgCPaSUsF5PXv2LBkcHHzHbDZbC9IpTBDmjxlOfUa8RlVr16e3hvalySs2UF5ONlny8yg0PIKs+fmUl5dDgUHBFBgYRNl3Mkmj0VJwaBjl3MkkQdCQNiBA+jMr4yaViChFAYGBf38zMsyeLMXu1DeOrBYL5eflUlBIKNmsFrLk50tx1384l579z5i/v0HxxfcKAq9Zz1+uzGZzpgrw+m0K8fHxP6amprbesWOHxW8h3FNxnqRY8IjBE0wgCJ6gjjLvJeBRQdDr9SWI6Eej0dgAq4gV3znj4+P5A/yOKIrJOTk5k81m88XCBOGrNcsprGQEValZj04fOUidY+Npx8Zkat35aTp3/Cc6fmAvddeNoG2fmqhTX5000rAl+SPq8txg2vftJipfuRpdTPuNLqWlUP9XxtOcUQk04cNPpPPO/XKUrqafpz/OnaFeQ1+mibruNCHRLMU9dXg/dejZj86dOEo/f7+LhkyYVaggJCQklLJarZMFQRgqimJoWlpaKG5Oxbe/i84QdDrdSpPJlOCi+F4ZFoLglc2GpBUm4FFB4LoMGjSols1mG0BEwQrXzefCCYLwZkGlRFHMstlsk0NKhMfGT5rf5u7KbkleQcFhYdKoQOWHalGVWvUocerr9JT+BTp/7jTdvnGdnh70Av1v5RKq36ot3bh0gU4c+p469OhHNy5foMoP1abDe7bR0e93UJ/ho+j2jWvUqmMX0mi1tO6DOdKz1ZtXL1O3uKG0/oM59OrsRKn4r9Z8RF3jhkp/XzFzHA0ZP+sfbbB+7uQL1y79MVmj0cwRBKHkXXWZwY9tfa7BvKBCoijeys3N/QCjOP9sLAiCF3RepOhyAh4XBJfX0IcK0Ov16US0ShTFzbm5uQfNZnN2YSMILAgNWj1KR77bRg1atZMeB6x6502q0aAJ8fwBbUAg9R76siQITdo+Tj/t2U4lS5Wh6Jp16PDubymiTDnSagMoJCyMbl2/RlGVqlC7br2J5xVsXW+kbnHDKOv2LVo5azxVqlZTite4zWN05uiPlJlxk+q3bENnjhyi9t16U4WqD/3dAgWPGGJjY4MCAgJaabXaLoIgDE5LS6uNEQQf6qg+UBUIgg80IqogmwAEQTZCzwZw5C0G/uYvCPc3+d3/vmuTme5kZFCdZg9TrUbNSBRt0lyEoo67r39QGXw9Jil6tq+gdPsJQBDsZ4UzfZcABMHL29YRQbCnqjzpMDc3m8JK/P0EwJ7L7DoHgmAXJpykAgIQBBU0AlLwOAEIgsebQF4CSguCvGyKvhqC4Eq6iK0kAQiCkjQRy1sJQBC8teX+yhuC4OUNiPRVSaAwQeCFkfgRHS94dO+jOn60xsfd/87nBwc7N/carzmqslv4XVIQBC9vcgiClzcg0lclgcIE4YMPPpBu+GfPnqVp06b9QwaMRiPxssx37/w4f/58GjVqlFP1gyA4hQ0XKUwAgqAwUHeHgyC4mzjK8wcChQnCgQMH6JFHHqFvv/1W2p/hzJkz1LJlS2lPhsTERJo6dSpt3ryZKlWqJC2pvG3bNmrXrh0ZDAaaOXOmdP7BgwdJp9PRhg0bpF0iH330UZo+fbp0HstHhw4dJLwQBH/oZeqvIwRB/W1UZIYQBC9vQKSvSgJFCcLevXspMzOT9u/fTzVr1pT2Yzh58iTNnj2bFixYQFFRUdImTLwZ0+jRo2ncuHHUq1cvOnToEJ04cYLefPNN2rp1K/322280ceJESR6qVatGVapUoZiYGAiCKnuEfyYFQfDydocgeHkDIn1VEihMEPjmzxstnTp1il599VXpRt+qVStpp0e+uXfs2JG++eYbaQSBt2/muQqNGjWir776irp06SJt5HTkyBH617/+RZcuXZJGHvr16yfFad++PTVo0IDq1q0LQVBlj/DPpCAIXt7uEAQvb0Ckr0oChQlCwU29VKlS0vwDHkXgm7zVapW2euYtnW02m7RLI09a5N0d+VEEbwfNuzryFs8sGHl5edK/85+8q2PBFtA88lBw4BGDKruF3yUFQfDyJocgeHkDIn1VEsBrjqpsFiTlZgIQBDcDV7o4CILSRBEPBIgnEmI3R3QEvycAQfDyLgBB8PIGRPqqJABBUGWzICk3E4AguBm40sV5kyCY505MXzz3vWilGSAeCChNAIKgNFHE80YCEARvbLW7co4fNGhN18GvDoiu3UDVNbmUeo6++HD2V6tXr+qm6kSRHAgQHjGgE4AAE3CJIAwcOLC9IAjDAwMDm5UuXbpUiRIlwl2NOzs7+87169dvWCyWEzabzWAymb5ydZlqiB8fH8/fyD8ILVGyqlL5iH/1C4Hoz/VjFThy7mSmi6I4ymAwnFYgHEKAgEsJYATBpXgR3EsIKCoIcXFxpTUazZJmzZoN4Pd+GzZsKL3+466DXzfi1cp4pbP9+/d/ZbFY9MnJyVfdVb6vlKPX6x+2WCwRycnJ23ylTqgHCDhCAILgCC2c66sEFBOE2NjYyMjIyOMJCQnRvOiHp4+ff/6ZFi5cmJmZmdnw448/TvN0Pt5Uvl6vny6KYhWTyZTgTXkjVxBQioBer+/bpUuX9bwssicOXmhp4sSJm00mU3dPlI8yQYAJKCII3bp1Cy5XrtzladOmRVSvXl01ZHkJ1DFjxtzOzc2tkpSUlKGaxFSeiF6v/1EQhHCDwfDnsm44QMDPCPTs2bNk6dKlf+zRo0dtXiGxdOnSpNVqXUqBF1nKyMgg/nKzatWqa3l5eU1MJtMFlxaK4CBQBAFFBEGn043v37//jKeeekp1sHnDlJUrV841mUyvqy45FSYUFxdXPSAgIIVTy83Nrbd27VrMGVBhOyEl9xDQ6/WxRLRSEIQSvKFSmzZtqHHjxoo+OuXdIX/44QfavXs3r8aYJ4riVJPJNNM9NUQpIPBgArIFgSfJlSxZMnXRokWae/dIVwN4XvJ0woQJtvPnzzc2Go2/qCEnNecQHx8/hYgmc46iKC4zGo0j1JwvcgMBNxAQEhISIvPy8iK1Wm0HQRD+FRQU1F6r1dbmOVb8Hy+lzJ9/FStWLDSdq1evSssr8ygBz5XiZZitVuvV3Nzc7aIofi+K4pcajeZqamrqrR07dljcUCcUAQLFEpAtCHq9/qVBgwYt5g1I1Hp899139OGHH04zGAyT1JqjmvLS6/UdRVGsbDKZktWUF3IBATURiI2N1ebm5oZFRESEC4IQIoqi1mq1BnOOWq22DBFVsVqtR/n/BUHIIyJrQEBAbkZGRlZaWlrWoUOH8tVUH+QCAvcSkC0Izz///K/vv/9+LTZotR5s7a+88krakiVLqqk1RzXlBUFQU2sgF28koNPpeguC0NloNI70xvyRMwhIYisHQ0JCQsVKlSpd4P3Mizp4aM1sNktDbLwVKr8CeffBW6Dyc70HTQKaMWOGtL1qeLjzyym8/fbbPPmn7po1a87IqbM/XAtB8IdWRh1dSUCv168TBKGOwWBo5spyEBsEXElAliAMHDjwkcaNG+//73//W2SOc+fOpSFDhhBvk3rw4EFq1qwZmUwmngQn7aE+adIkmjx5Mu3bt4+ys7MlgSjYFz01NZXS0tIoJCSEatasyRMOJZHo3r07LV68WIoVHR1NTz75ZJE5LFu2jHbt2tXHZDJt/OtEQafTtbBaralYK+Gf6CAIrvyVQ2xfJzBgwIByAQEBF4koy2g0luLpPL5eZ9TPNwnIEgSdThfTsWPH7cOGDSuSTmxsLCUlJdGXX35Jv/76K3Xq1In27NlDCQkJNHbsWGk/9AULFtDOnTupa9euNHv2bBo/fry0p/qgQYNo6tSpZDAY6IUXXqBPP/2UevToQYmJibRjxw7avn07Pffcc7Ru3boic+Cff/bZZy8IgvC1zWbrpdFoxgmCUN5qtfa1Wq37XNm8ISEhtp9//vmatzxzhCC4sjcgtq8T0Ol0gzUazQqupyiKXY1G4xZfrzPq55sEZAmCXq/v1KFDh63FCcKaNWvo0UcfpcqVK9OGDRuodu3a0mqHer2eFi1aRDzDd968ebR582biyY48SjBmzBi6efMmvw9MQ4cOpRUrVkgxeMJht27dJNlgWdiyZQu9+OKL0nlFHX8JwjRBEGoRUS9BEEKJSCOK4geCIEiv9bnqEEWxJBF1MhqNjxGRzVXlKBUXgqAUScTxVwI6na6ZRqNpbjAYVvsrA9Tb+wnIEgTec6FFixZ7Xn+96CUGeCTg6NGj0jLIjz/+OJUvX176Oy8I0qtXL+IFjbKysigzM1MaYeD1FAIDA+ny5ctUrlw56RUifhzB5/MjCn6ViM/p3LkzTz6kmJgYKlu2bJGtwQKxdevWOJ6ZHxMTExAVFRURHBw8QRTFj5OSkg64uin5cYxWq21iMBikbxZqPnQ6XU9BECxGo/FLNeeJ3EBArQQgCGptGeTlCAFZgqDT6erVqlXr5JQp/Oq86w8WCRYNnrfAx+jRo2nOnDnS+8fFHfwI48CBA48lJSXtLe5cV/ycWQmCEGez2c4JghDlijKUiCkIAr+m1SItLa0/3sdWgihi+CMBCII/trrv1bn4O2sRdeZv4k2bNs1YsGABD9er+vjvf/+bc+7cuUiz2czvI7v9YEHQaDS8w2Rfm812x+0J2FmgzWaz5efn/+4pTnamidNAQNUEIAiqbh4kZycBWYLAZej1+sTp06cPr1ZNvUsMpKen07hx48wGg6GfnVwUP+2vEYQXjEbja4oHR0AQAAFVEYAgqKo5kIyTBGQLQlxcXPOGDRsenjBhgpMpuP6yJUuW8Frn3UwmE3+D98jBgiCK4pCkpKSxHkkAhYIACLiNAATBbahRkAsJyBYEfhMgISHhp3fffbdJVJT6Hq1fv36d3njjjVMZGRmNzGaz1YUsiwwNQfAUeZQLAu4nAEFwP3OUqDwBJQSB+vTpUz4yMjL9/fff14aGqmc6Am+KMnr0aNuVK1eaJicnH1cen/0RIQj2s8KZIODtBCAI3t6CyJ8JKCIIHEin07UsW7bswVmzZglqkATeLY0XYbpy5cpTanhdD4KAXzgQ8B8CEAT/aWtfrqligsCQ4uLiupctW9Y8dOjQMF4C2VNHSkoKLVy40HL16tXnjEbjBjUsdQpB8FRvQLkg4H4CEAT3M0eJyhNQVBA4vdjY2BqhoaFjK1asOKxKlSra0qVLK5/1AyLyyosXLlywnT9/3pybmzt17dq1v7it8GIKgiCopSWQBwi4ngAEwfWMUYLrCSguCAUpx8bGlgkJCWkiiqLzWzA6WH9eXyA/P/8Xs9nMG6Wo6oAgqKo5kAwIuJQABMGleBHcTQRcJghuyt9rioEgeE1TIVEQkE0AgiAbIQKogAAEwU2NAEFwE2gUAwIqIABBUEEjIAXZBCAIshHaFwCCYB8nnAUCvkAAguALrYg6QBDc1Af+2othgMFgcM/OVm6qF4oBARC4nwAEAb3CFwhAEAppRb1eX14QhBP169cPDwoKUiUjm83GW2bn5ObmTjcYDLO9oTPq9fqEwMDAefXr1w/jLbzVePDiWr/88kumKIodVq9e7dHFtdTIp7icYmNjgwIDA5sEBgZ2sNlsDYjoMUEQIkRRDBZF8XeTyfRwcTHc/XO9Xl9Do9Ec5N933mZejQf/vp86dSo7Pz9/vMFgeF+NOSIn3yOgypufpzEPGjTI+N577+nKli1r11bSnso3OzubRo0alZKYmFjDUzk4Uu6wYcOOzJ07t2nJkiUduczt5/Ly3GPGjNm0cuXKHm4vXOUFxsbGVgwJCWlJRLx9Of/5kCiKkRqNplS1atUiKlasGMkbt1WtWpW4ncPCwigkJIR48bTvvvuOVq5cOdFoNE5XUzUTEhI+ee+992LLlCmj6t/3zMxMXhn29LJly+qpiR9y8V0CEIRC2nbIkCFffvTRR928odmnT59+a+LEiaW8IddRo0adnjdvXh1vyHXkyJHnlixZUssbclUqx4SEhJD8/PyaWq22oc1me0ij0TQWRbGMIAiVIyIiylSqVKlSmTJlQvjmX6pUKeIbaokSJaS/h4eHU3GjQmfPnqWpU6eajUajx3ZVLYzV8OHDv0lMTOysFEdXxpk6deqNKVOmlHFlGYgNAgUEIAheLggzZsy49eabb0IQFP6dfvnll88tXrzYpwQhNjY2KiQkpKYoipUEQajBN35RFGtotdoqFSpUqB4REVGRN1zjxc3KlStHPILGEsB/Dw4Olk0YgiAbIb311ls3Jk+eDEGQjxIR7CAAQYAg2NFNlDnFm0YQvE0QYmNjtcHBwTx3pqzVai2j1Wor2Gy2WlqttkVYWNhDJUqUaB4WFhbEw/6RkZHEjwH4xl+jRg1JCIr79q9ED4AgyKcIQZDPEBHsJwBBgCDY31tknglBkAnwAZf379//4VKlSm0rWbJkSf6mzzf9KlWqUPXq1aX/eA6AGg4IgvxWgCDIZ4gI9hOAIEAQ7O8tMs+EIMgEWMjlsbGxkaGhoReWLl0ayhMC1XxAEOS3DgRBPkNEsJ8ABAGCYH9vkXkmBEEmwMIFIapWrVrnZ82aFaR8dGUjQhDk84QgyGeICPYTgCBAEOzvLTLPhCDIBPgAQahdu/b5mTNnOi0Is2fPpuHDh0tvI2zYsIH69OmjfKJEBEGQjxWCIJ8hIthPAIIAQbC/t8g8E4IgE6CLBGH8+PFUu3ZtGjJkCM2dO5cGDx5MiYmJ0psLbdq0obp169K2bduoU6dOdOLECXr88cedqggEwSls/7gIgiCfISLYTwCCAEGwv7fIPBOCIBOgiwThnXfekSY1NmnShPbv3y8talS+fHleUZK6detGvEDPvn37pMWPfvzxR5o4caJTFYEgOIUNgiAfGyI4SQCCAEFwsus4fhkEwXFmxV3BaxvIfcTAgjB27Fh69913pZUPedGjFi1a0J07d6h58+aUnJxMtWrVooMHD1LFihVp4MCBxaVV6M8hCE5hgyDIx4YIThKAIEAQnOw6jl8GQXCcWXFXKCEIH3zwAb3wwgvS44OtW7dS//79acaMGdIqiVOmTKE5c+aQTqejr7/+mnr16iUtoOTMAUFwhto/r8EjBvkMEcF+AhAEJwTh9u3bxPsgBAUFUURExAMXmeENVvgoWIQmIyNDOr+44/z589KQrz2Hr62kyIz4G6wgCHTz5k1pEZ/iDt5gKTc3V/r2a7FYJN5yF/7xloWSlBCE4vgq9XNfEATuX/y7f/d+IleuXJEmePJGT9wPb9y4IY20uOKAILiCKmI+iAAEwQlB4IlcvXv3ppMnT0o3Mn5Oyx8a/OyWj5ycHEkevv/+e+mDo1GjRtK/87cx/q/g4PP4Q0Wr1RLLRMFNLS8vT7renpudrwnC5MmTqXLlyjRs2DDpv5UrV0ofugEBARKnwg7+gP7yyy9p0KBBdPr0aapUqZL0Ac7X8UQ7URSlvxcsGMT/zwe33YMOCILyH5q+IAjr16+X5mnwYxk++HeVJ3C2bt1aWqHy8uXLtGfPHoqNjS0U4N19kh/h8CgNHyy5/PtfVJ/k8yAIyvdLRHwwAQiCE4LAQ64jRoyQPgwOHDhAFy9epCeffJJMJpM007tgMhff9Hklu/bt20ulTJo0iX/Bpb8vW7aMGjRoQLt27ZIEg/+sWbOmtATu3r17pVfCevbsST/99BO9+uqrD2zBAkGIiYkJiI6OHqnRaIYIgvBQampq+R07duR4qvPHx8fzlsmpNpvNoNFoFhmNxix7HjF8+OGH0s39mWeeoeeff17iWqFCBWn4m7m2bduWeNb9Rx99RPPnz+fdLIkF4YsvvqCEhATeEpd4PwF+dY9n47NUfPLJJ5LQrVu3ThKyLl26SM/WixplUKsgxMfHXxNF8YzVap2/Zs2aj4saQcjPz5fqWyCtLEvF3YCU6C98s+OdG+9920ENghAfH/+LKIq817jRZrMtTEpKynBks6aZM2dS48aNpd/V9PR0qW+uXr1amsPx7bffSv2N/2NB4PryZwP//h8+fFh6fNO9e3fpy0BSUpIkwPPmzaPo6GipX8fExBTbPhAEJXooYthLAILghCDwzYc/JPjDgf9cvHgxb8NKCxYskMSBv1GwOPBNiCd3paWlSUPlmzdv/lsQ/vOf/0jPdvkbCY8W1KtXT5KJ1NTUvwWBP4w+++wz6tfvwZvfTZ8+PePkyZMjNBrNB4Ig/L1pkyiKb/MXE3s7wl3n8bq8WUSUQUTRRHTHiRj8QTeh4DpRFDOsVuurUVFRb86fP7/IDZD49Tp+3s03fv62xYz5A5a//fNjly1btkgT6HgIl/+NlxXmIV3+kOZrWLQeeeQROnr0qPRN7t///jetWrVKerefR3mOHTtGL730UrGbD7388svXMzIyFjpTdxdf8/cQlCiKhy0Wy5iHHnpoc2HrIGzatImefvppKR3ub/ytlx/bsBgxS36cw/2tYcOG9Mcff0g8+ebFIyz8KIwf2fBNkG943A4XLlyQRsf4hsZvODRt2lQ6n1mz7BaM0HB78M/btWv3DxR/CcJxQRDMLmZUVPhRRFTwe5JltVrfDQ0N7bBs2bJ/FZfT77//Lv2Oc/15dI/7II9a8e9/586dpbc9+PHYzz///LcgMFfmwP/GXLl/cv9dsWKFJAj8OPG3336T5oDwxljFHRCE4gjh50oSgCA4IQgFIwgFzyF5ljd/U+CDb0gsB/xhyN8ieASAP0T4+L//+7+/n02yPPArY/wtj2+IS5Yskd5F5w+TnTt3StfPmjWLNm7cWKQgFIwgTJkyRXPq1Kl2AQEBXYno2bS0tObOjiDodLqRRFTeZDJNcraz6fX6FCJaK4ri5tzc3O/MZnOePSMILAgsWXyD4ccxb7zxBn3zzTfSDSo+Pl660TEr/ibGi/rwBzLfpPjmx39mZWVJEsYjDHwjbNmypcSTh3L5RshtY6cgqHI3R71ef8Bms60XBGGzyWQ6UtQIwt2C8Nprr0n9kFkyE765c/967rnnpBEY/ve+ffvSkSNHpNcdP/30U+lm+NVXX0mjNyxYPJmRR194pIwXVmL2BoOBBgwYIDEeM2aM1F2YcatWre4boVHDCIJerz9FRD8yQ5vNtiM5OfmqvSMIL774ojR5k2WfR7r4y8GOHTsk0eLfbX70yDd5Fn3+3WdR4n7J60gwc/4sYEmtX7++9LvPnx88EsG8WBDsmW8DQXD2EwnXOUMAguCEIBQGmr8dFAzf2vs8sWDeAT+LXLt2rTSH4amnnvrHBKjiGtUVcxD0en1H3gkwKSlpRXHlO/JzewShOLZFlXf3PA4+7+42ufdnxeWt1kcM9+ZdlCDwiBULK8/f4EWQ+Jsuj1jxozF+5MKixaLA8sUjVSwAfMNnEeObHV/Dwnbp0iVJAvixAf8bi9u0adMkKVizZo30WI2fxbPY8cHzSKZOnXofYjUIAs8ZJqI/Zw//ddgrCMX1zcLmttz7b3f3w7v7Z3H9seDnEAR7SeE8JQhAEBQSBLmNwcPpPHzLE50cOfxBEBzhodS5viAILAI82sXzOPjmzq8v8iMWHmV57LHHJAngeRs8T2H58vGSiwoAABStSURBVOXSnA6+4cfFxdGiRYukEQWe08HPz3lUgYfCebSLRx4mTJggPcLhEQY+7+rVq9IrkPwNmRdSeu+999QqCPflJUcQlOpv9saBINhLCucpQQCCoBJBcLYxIQjOkiv6Ol8QBNeQcT6qSkYQIAjONyGu9DMCEAQIwn0E1PaIwRO/kxAE5alDEOQzxQiCfIaIYD8BCAIEAYJQSB+AINj/IWLvmRAEe0k9+DwIgnyGiGA/AQgCBAGCAEGw/xPjAWfyHBqed8BzEx50QBBkY8ZCSfIRIoIDBCAIEAQIgh8IAr/6yStM8hsN/CotTzDktxN4gR9+J5/fwOF3+fltBl7Jkl8J5XUQ+E0FXodi9+7d0ut5PGGRlxrn1yZ5AiS/3cCLVPErjykpKf9YKfRerBAEBz6ZH3AqRhDkM0QE+wlAECAIEAQ/EIRXXnmFFi5cKN3UeeGtQ4cO0Q8//CC9ksjrHbAQ8OuK/OojL+7F6x3wa5H8Zs2jjz4q3fz5VUaOw+/t16lTh4xGoyQIvPInn7N06VIIgv2fvU6dCUFwChsucpIABAGCAEHwA0HgLZrffvtt6abO6x7wa468zwUv8MOrK/JqiLxwDy9TzY8L+LVFPpcX8GGR4NX/eFVFHk3Yt2+ftHASjyp07NhRWqmS11PgxZbu3msEIwhOfioXcRkEQXmmiPhgAhAECAIEwQ8EgUcOeNU+XuGQl1HmJav5Jn/8+HFpxT9+bMCLdPEjBB4t4JUAeQ0E3v+C1z9gqeA1Onj1Sv43Xs6ahYH3DuHVBHk5Zl7o6+GHH37gpw0eMci/FUEQ5DNEBPsJQBAgCBAEPxAEHi3gzas8eUAQ5NOHIMhniAj2E4AgQBAgCH4gCPZ/JLjuTAiCfLYQBPkMEcF+AhAELxeEadOm3Zo0adLfuzja3/QPPhMLJRGNHDny3JIlS4rceVIJ1nJjFLUXg9zYSl8PQZBPdPLkyTfeeuut4rd9lF8UIoAAQRAK6QR6vX7B6NGjX2nWrFmx+7N7sg/xWvvjxo07tWLFivpK5uEqQRg8ePAPU6ZMacPPrdV88O6Fs2fPNq5atSpezXlybr179y5VtmzZCwsXLgzh1xLVevDGRDx/YePGjSONRuMSNeU5aNCgD19//fURvDtjwYZrasqvIBfeOnrSpElHVqxY0VyN+SEn3yMAQSikTXv27FmyVKlSayMjI6ur+QMjMzPzZm5u7qSkpKStSnZNVwmCXq9vExAQ8E7JkiWjlMxX6Vi3bt06b7VaE0wm0wWlY7sink6nGxgSEvJaWFhYqCviKxHTYrHYbt++vc9oNA5TIp6SMeLj48sSUVJkZGRVBX/fQ4gomIhuKZXr7du3r+Xn508wmUy7lYqJOCBQFAEIAvrHfQRcJQhADQL+QkCn0zXTaDTNDQbDan+pM+rpewQgCL7XprJrBEGQjRAB/JwABMHPO4CPVB+C4CMNqWQ1IAhK0kQsfyQAQfDHVve9OkMQfK9NZdcIgiAbIQL4OQEIgp93AB+pPgTBRxpSyWpAEJSkiVj+SACC4I+t7nt1hiD4XpvKrhEEQTZCBPBzAhAEP+8APlJ9CIKPNKSS1YAgKEkTsfyRAATBH1vd9+oMQfC9NpVdIwiCbIQI4OcEIAh+3gF8pPoQBB9pSCWrAUFQkiZi+SMBCII/trrv1RmC4HttKrtGEATZCBHAzwlAEPy8A/hI9SEIPtKQSlYDgqAkTcTyRwIQBH9sdd+rMwTB99pUdo0gCLIRIoCfE4Ag+HkH8JHqQxB8pCGVrAYEQUmaiOWPBCAI/tjqvldnCILvtansGkEQZCNEAD8nAEHw8w7gI9WHIPhIQypZDQiCkjQRyx8JQBD8sdV9r84QBN9rU9k1giDIRogAfkwgLi6uuVar7SaKYvX8/PzFa9euPebHOFB1LyYAQfDixnNV6hAEV5FFXH8goNPpems0mg2iKIr5+fmtPv7448P+UG/U0fcIQBB8r01l1wiCIBshAvgxgREjRgRmZ2ffEQThhsFgKO/HKFB1LycAQfDyBnRF+hAEV1BFTH8ioNfrlxJRK6PR2Nqf6o26+hYBCIJvtacitYEgKIIRQfyYwMCBA/8lCEI7k8k0zY8xoOpeTgCC4OUN6Ir0IQiuoIqYXkhAM2DAgHZarbaJIAiVHcw/lIgiiOiSg9ddFEXxbFhY2NbExMR8B6/F6SCgKAEIgqI4fSMYBME32hG1cI5AbGysNiQk5KWSJUuObt68efWqVatSqVKlSBBc+3EpiiJlZGTQpUuX6NixY5np6emJubm5b5rN5mznaoKrQEAeAdf2eHm54WoPEYAgeAg8ivU4gQEDBpQLDg5e+8QTT3R67rnnKDg42CM52Ww2+vrrr2n9+vWXs7Ozn0hKSjrhkURQqF8TgCD4dfMXXnkIAjqFPxKIiYkJqFat2i8jRoyo3b59e1UguHLlCk2cONFy/fr1WmazOVUVSSEJvyEAQfCbpra/ohAE+1nhTN8hEB8fv+XFF1/s0qZNG4crxY8H+OA/NRqNw9cXdUF6ejpNmDDhZFZWVmOz2WxVNDiCgUARBCAI6B73EYAgoFP4G4H+/ftXrl69etrMmTM1997gY2JiJBzNmjWjcePGUcWKFe/D8/vvv9OdO3eIv/F36NChSHw8x6BEiRIUHh4unffbb79RjRo1irxm9erVtHXr1pFGo3GJv7UN6us5AhAEz7FXbckQBNU2DRJzEYFBgwadmD9/fgOejHjv0a1bN9q8eTPl5OTwnACqXbs2ffHFFxQREUHDhw+nsWPHUmRkJMXHx9PZs2fpxo0blJqaSu3ataMff/yRSpcuTTqdjt555x2qXr06ZWVlSefzv6WkpND7778vXbtmzRppzsPkyZPvyyEvL4/GjBlzYdGiRdE8UOEiDAgLAv8gAEFAh8AIAvqAXxPQ6XSVwsPD05csWVLo44GOHTvSiBEjaM+ePdLNm8+rWbMmHT9+nJ599llq0aIFHThwQBKBQ4cOSW8hjB49moYMGUKdOnWitWvXEktGr169JAE4ePAgtWzZkipVqiRx37RpE+3YsYMfI0gi8vjjjxO/OXHvsXz5ctq1a1c/o9Fo9usGQ+XdRgCC4DbU3lMQRhC8p62QqXwCer3+sZ49e+7mm31hR8EIwqJFi6hLly7SKMLgwYOlxwkWi0V6VLBz505pxIAFITs7m55//nnpccT48eNp//79dPPmTUkqeHSBRwP4kUK9evWk4pKTk4kfUXD5PDKh1+upTJky96XCsRcuXLjaYDAkyK81IoBA8QQgCMUz8rszIAh+1+R+XWGdTjd7zpw5Y8qXL3zbBH7+P2jQIInRrl27qFGjRpIkNGnSRBoJWLlyJTVu3Jjq1q1Lf/zxB+Xn51Pr1q2lkYRPPvmEnnjiCekao9EoSQH/x9LAssEHx+KRBv6zVq1a0vmFHbdv36aRI0fuNxgMjs+i9OsWRuWdJQBBcJacD18HQfDhxkXV7iMwePDgz1esWPG0N6B5/vnnf01MTKzjDbkiR+8nAEHw/jZUvAYQBMWRKh4wNjY2KDg4uDcR4dukTLrBwcGtly9f/pjMMG65fPTo0anz5s2r7pbCUIjfE4Ag+H0XuB8ABEH9nUKn0429devWR59//vlV9Wer7gyHDx/+TWJiYmdns+RJjNu3by90giM/bhg2bBjxYwoljtGjR6fMmzev6HcilSgIMUCAiCAI6Ab3EYAgqL9T6HS6GSaTaYL6M1V/hnq9fvXy5cvjg4KCnEqWBYGXReY3HHheQv/+/Wnx4sXSWw2tWrWibdu2SZMS09LSKCoqSpqM6MzBEyKHDh16zGAwNHHmelwDAo4SgCA4SswPzocgqL+RIQjKtZFOpxv40ksvmdq2betUUBaE7t2704ABA+jLL7+UxCAwMJAqVKggTVjkSYzNmzenp59+msxms7Ruglardbisc+fO0dSpUzcZDIYeDl+MC0DACQIQBCeg+folEAT1tzAEQbk2iouLq1OnTp3TPALgzI6NLAj8RsLQoUOldQxYDnghpOjoaOKb+ueffy4JAi+MxGsZ8OuPzhyfffYZrVu3boLJZJrpzPW4BgQcJQBBcJSYCs/X6/UPi6L450vVyhy1BUEoJYriQWXCSWvUn01KSvpBqXj+HgeCoFwPSEhICNFoNNeWLl0a5sxjhrlz50pysG7dOgoJCaFnnnlGEgGr1SqtjXDixAmqUqWK9Orj3r17qWvXrk4lP3ny5LyzZ8/WSkpKOu9UAFwEAg4SgCA4CExtp/PwaPmqNUzVGzYnQeFNYpSqq2izUdqpY3Tp919HG43GeUrF9ec4EARlW1+v1w/t16/fsqeeekpwZhTh7mz4scLSpUuljZtefvllRTZvOnz4MM2bN2+V0WgcrGzNEQ0EHkwAguDlvSNhyNCdCVMXdZD7oeZqDPxhaXxr1NGPliU2c3VZ/hAfgqBsK48YMSIwJyfn4pw5c8qUK1dO2eAyo/HkxAkTJuSlp6c3NZlMp2SGw+UgYDcBCILdqNR54vARL+zVTZrXTp3Z/TOrdfMmpS+aM5s3m8EhkwAEQSbAQi7v27dvpXLlyqUuWLAggB8VqOWYOnUqnTlzRp+UlGRSS07Iwz8IQBC8vJ0hCF7egE6mD0FwElwxl8XFxXWPioraMH78+KAHLb3smpLvj8pzGFgOUlJSxhqNxtnYxdFd5FFOAQEIgpf3BQiClzegk+lDEJwEZ8dlAwYMaBQeHr6uadOm9Xv06CFt0ezO49q1a/Ttt9/yvg/5GRkZT5lMpq1EZHNnDigLBJgABMHL+wEEwcsb0Mn0IQhOgrPzsr+Wsv43EfUOCwtrEhgY6PjCBXaWdfdpVqvVlpWVdc5ms32Rl5e30Ww2ZzoRBpeAgCIEIAiKYPRcEAiC59h7smQIgifpo2wQ8A8CEAQvb2cIgpc3oJPpQxCcBIfLQAAE7CYAQbAblTpPhCCos11cnRUEwdWEER8EQACC4OV9wBFBOH30ED1UrxHxwkVXL5yn6Jp1KeXUMXqoXuO/KRzcvoUaPtKOwsJL/oNMXm4OXUz9jaJr1CZtQKBT1PCao1PYCr0IgqAcS0QCARAonAAEwct7hiOCcHDHFipXKZoun0+l1DO/UJ/ho2ju6CH04vRFtHNjMrXv/gzt3fwplSlfiQKCgqhlh3/Td5s3kiZAS4880ZXSU87SV8kfUZ9hr1LamZOUees6dezV326CEAS7URV7IgShWEQ4AQRAQCYBCIJMgJ6+3BFBsFmt9MM3n1NWxi0qERFJNRo2pVOH99POz9bSqNmJtGb+dKperxFVq9tQGmGo0aAp7f3yU+o2cDgFh4TSr8cOU8rJn6lu89Z04/JFaTQhJzub6jZrZRcGCIJdmOw6CYJgFyacBAIgIIMABEEGPDVc6oggcL7rlr5H5atUp0rVa9LxA99Rl36D6K2hfWnIhHfIZrPSueM/UZO2Heli6jmq3aQlZVy/Sod2fk2Pde9Ll87/Tr+fOi5JxB+//Uq1GjWjMhUqUdkKle1CAUGwC5NdJ0EQ7MKEk0AABGQQgCDIgKeGSx0VhN2b1lFUdDWqUb8xrftgDg18bSL9uPNrunn9KpWOqkC5d7IpM+OGtMHMw090pUM7vqa8nBxq17UnXbnwB134/RxVrV2Pfv5hF5WMLEOtO3enkLASdqGAINiFya6TIAh2YcJJIAACMghAEGTAU8OljgqCJ3O+VxD69OlTNjw8vJ3RaNyEZWQdaxm9Xv+O0Wgc69hVOBsEQAAE7CcAQbCflSrP9C5BmJx+41L6wxqNprkoiv8RBKEHQ7XZbPW1Wq1FlYBVmJTFYqklCEJnk8n0hgrTQ0ogAAI+QgCC4OUNKUcQMjNuUnhEqSIJ8IYxv588RjUbyd+led3cyReuXTw/WqvVThIEoQoRSe9SiqI4WhAErDVvZ1+0WCxH16xZs93O03EaCIAACDhFAILgFDb1XCRHEJIXzKABr074uzLpKb9KrzjynIKMm9cpOCSEBEFDGdevUUBgAJGgodAS4dIbDc4cdz1iEGJjY0MCAgJaBwQELExLS2u1Y8cOjCA4AxXXgAAIgICLCEAQXATWXWGVEoT1H86lVh2fpD1frKOm7WLoxpWLpNUGUPV6jWn7hjXEr0g+3uNZOrJ3O/Ud8ZpT1cMkRaew4SIQAAEQ8AgBCIJHsCtXqFKCMH/McHrhrfn0jdlAIaFh0hoJ3Dk0Wi3t3rReEoTnXhlH36xdRT0Hv+RUBSAITmHDRSAAAiDgEQIQBI9gV65QOYKwPnEeVaz6kDRSULZSNJ05cpAs+fnUrltv2vW/T0ijDaBm7WLo2L7dPJGQug4YQt9v+R/F9LZ/9cS7awpBUK7dEQkEQAAEXE0AguBqwi6OL0cQHpRazp0s2vPFeuL9F54cMEQSCCUOCIISFBEDBEAABNxDAILgHs4uK8UVglCQLI8a8IJJSh0QBKVIIg4IgAAIuJ4ABMH1jF1agisFQenEIQhKE0U8EAABEHAdAQiC69i6JTIEwS2YUQgIgAAI+B0BCIKXNzkEwcsbEOmDAAiAgEoJQBBU2jD2pgVBsJcUzgMBEAABEHCEAATBEVoqPBeCoMJGQUogAAIg4AMEIAhe3ogQBC9vQKQPAiAAAiolAEFQacPYmxYEwV5SOA8EQAAEQMARAhAER2ip8Nxhw5/fo5s0r70gqLspRVEk8+wJqUsWzquuQoxICQRAAARA4B4C6r6roLmKJaDT6Za07z3wxdot2hZ7ridPSD3xE+34ZMXHRqNxgCfzQNkgAAIgAAL2EYAg2MdJtWfFxMQEVKlW7U2tILRQbZJEvJfD8ZycnClmszlPzXkiNxAAARAAgT8JQBDQE0AABEAABEAABO4jAEFApwABEAABEAABEIAgoA+AAAiAAAiAAAgUTwAjCMUzwhkgAAIgAAIg4HcEIAh+1+SoMAiAAAiAAAgUTwCCUDwjnAECIAACIAACfkcAguB3TY4KgwAIgAAIgEDxBCAIxTPCGSAAAiAAAiDgdwQgCH7X5KgwCIAACIAACBRPAIJQPCOcAQIgAAIgAAJ+R+D/Ac/Nrx6A1UEbAAAAAElFTkSuQmCC;" parent="1" vertex="1">
          <mxGeometry x="55" y="60" width="669.59" height="470" as="geometry" />
        </mxCell>
      </root>
    </mxGraphModel>
  </diagram>
  <diagram id="HZI9g92PwodUdJ7Ky6Ur" name="Acct Login new">
    <mxGraphModel dx="1924" dy="1613" grid="1" gridSize="10" guides="1" tooltips="1" connect="1" arrows="1" fold="1" page="1" pageScale="1" pageWidth="850" pageHeight="1100" math="0" shadow="0">
      <root>
        <mxCell id="wqnz3s3gSJFlAUqwweRB-0" />
        <mxCell id="wqnz3s3gSJFlAUqwweRB-1" parent="wqnz3s3gSJFlAUqwweRB-0" />
        <mxCell id="wqnz3s3gSJFlAUqwweRB-6" style="edgeStyle=orthogonalEdgeStyle;rounded=0;orthogonalLoop=1;jettySize=auto;html=1;entryX=1;entryY=0.5;entryDx=0;entryDy=0;" parent="wqnz3s3gSJFlAUqwweRB-1" source="wqnz3s3gSJFlAUqwweRB-2" target="wqnz3s3gSJFlAUqwweRB-5" edge="1">
          <mxGeometry relative="1" as="geometry" />
        </mxCell>
        <mxCell id="xDVxtoasq2RyWKlC1aQs-5" value="Create Acct" style="edgeStyle=orthogonalEdgeStyle;rounded=0;orthogonalLoop=1;jettySize=auto;html=1;exitX=0.75;exitY=0;exitDx=0;exitDy=0;entryX=0.25;entryY=1;entryDx=0;entryDy=0;" edge="1" parent="wqnz3s3gSJFlAUqwweRB-1" source="wqnz3s3gSJFlAUqwweRB-2" target="xDVxtoasq2RyWKlC1aQs-4">
          <mxGeometry relative="1" as="geometry" />
        </mxCell>
        <mxCell id="wqnz3s3gSJFlAUqwweRB-2" value="Login Page" style="rounded=1;whiteSpace=wrap;html=1;" parent="wqnz3s3gSJFlAUqwweRB-1" vertex="1">
          <mxGeometry x="360" y="410" width="120" height="60" as="geometry" />
        </mxCell>
        <mxCell id="xDVxtoasq2RyWKlC1aQs-3" style="edgeStyle=orthogonalEdgeStyle;rounded=0;orthogonalLoop=1;jettySize=auto;html=1;entryX=0.5;entryY=1;entryDx=0;entryDy=0;entryPerimeter=0;" edge="1" parent="wqnz3s3gSJFlAUqwweRB-1" source="wqnz3s3gSJFlAUqwweRB-5" target="xDVxtoasq2RyWKlC1aQs-2">
          <mxGeometry relative="1" as="geometry" />
        </mxCell>
        <mxCell id="cVmyD9e8kayCVgNoWlCr-3" style="edgeStyle=orthogonalEdgeStyle;rounded=0;orthogonalLoop=1;jettySize=auto;html=1;" edge="1" parent="wqnz3s3gSJFlAUqwweRB-1" source="wqnz3s3gSJFlAUqwweRB-5" target="cVmyD9e8kayCVgNoWlCr-2">
          <mxGeometry relative="1" as="geometry" />
        </mxCell>
        <mxCell id="VlikJ6O9QIKVLXQ5HvOz-13" style="edgeStyle=orthogonalEdgeStyle;rounded=0;orthogonalLoop=1;jettySize=auto;html=1;entryX=0.5;entryY=0;entryDx=0;entryDy=0;" edge="1" parent="wqnz3s3gSJFlAUqwweRB-1" source="wqnz3s3gSJFlAUqwweRB-5" target="VlikJ6O9QIKVLXQ5HvOz-11">
          <mxGeometry relative="1" as="geometry" />
        </mxCell>
        <mxCell id="wqnz3s3gSJFlAUqwweRB-5" value="Post login Page" style="rounded=1;whiteSpace=wrap;html=1;" parent="wqnz3s3gSJFlAUqwweRB-1" vertex="1">
          <mxGeometry x="120" y="250" width="120" height="60" as="geometry" />
        </mxCell>
        <mxCell id="xDVxtoasq2RyWKlC1aQs-2" value="Goto app" style="strokeWidth=2;html=1;shape=mxgraph.flowchart.terminator;whiteSpace=wrap;" vertex="1" parent="wqnz3s3gSJFlAUqwweRB-1">
          <mxGeometry y="190" width="100" height="60" as="geometry" />
        </mxCell>
        <mxCell id="xDVxtoasq2RyWKlC1aQs-7" style="edgeStyle=orthogonalEdgeStyle;rounded=0;orthogonalLoop=1;jettySize=auto;html=1;entryX=0;entryY=0.5;entryDx=0;entryDy=0;entryPerimeter=0;" edge="1" parent="wqnz3s3gSJFlAUqwweRB-1" source="xDVxtoasq2RyWKlC1aQs-4" target="xDVxtoasq2RyWKlC1aQs-6">
          <mxGeometry relative="1" as="geometry" />
        </mxCell>
        <mxCell id="xDVxtoasq2RyWKlC1aQs-4" value="Input Info" style="shape=parallelogram;html=1;strokeWidth=2;perimeter=parallelogramPerimeter;whiteSpace=wrap;rounded=1;arcSize=12;size=0.23;" vertex="1" parent="wqnz3s3gSJFlAUqwweRB-1">
          <mxGeometry x="520" y="190" width="100" height="60" as="geometry" />
        </mxCell>
        <mxCell id="xDVxtoasq2RyWKlC1aQs-6" value="Redirect to Login" style="strokeWidth=2;html=1;shape=mxgraph.flowchart.terminator;whiteSpace=wrap;" vertex="1" parent="wqnz3s3gSJFlAUqwweRB-1">
          <mxGeometry x="680" y="190" width="100" height="60" as="geometry" />
        </mxCell>
        <mxCell id="V1RmFK4UrBHqZ_teVOmD-1" style="edgeStyle=orthogonalEdgeStyle;rounded=0;orthogonalLoop=1;jettySize=auto;html=1;entryX=0.5;entryY=1;entryDx=0;entryDy=0;" edge="1" parent="wqnz3s3gSJFlAUqwweRB-1" source="cVmyD9e8kayCVgNoWlCr-2" target="V1RmFK4UrBHqZ_teVOmD-0">
          <mxGeometry relative="1" as="geometry" />
        </mxCell>
        <mxCell id="V1RmFK4UrBHqZ_teVOmD-2" value="Edit Acct" style="edgeLabel;html=1;align=center;verticalAlign=middle;resizable=0;points=[];" vertex="1" connectable="0" parent="V1RmFK4UrBHqZ_teVOmD-1">
          <mxGeometry x="-0.1143" y="-4" relative="1" as="geometry">
            <mxPoint x="-8" y="-16" as="offset" />
          </mxGeometry>
        </mxCell>
        <mxCell id="VlikJ6O9QIKVLXQ5HvOz-0" value="Delete Acct" style="edgeStyle=orthogonalEdgeStyle;rounded=0;orthogonalLoop=1;jettySize=auto;html=1;entryX=0.5;entryY=1;entryDx=0;entryDy=0;" edge="1" parent="wqnz3s3gSJFlAUqwweRB-1" source="cVmyD9e8kayCVgNoWlCr-2" target="V1RmFK4UrBHqZ_teVOmD-3">
          <mxGeometry relative="1" as="geometry" />
        </mxCell>
        <mxCell id="VlikJ6O9QIKVLXQ5HvOz-5" value="Edit Facility" style="edgeStyle=orthogonalEdgeStyle;rounded=0;orthogonalLoop=1;jettySize=auto;html=1;entryX=0;entryY=0.75;entryDx=0;entryDy=0;" edge="1" parent="wqnz3s3gSJFlAUqwweRB-1" source="cVmyD9e8kayCVgNoWlCr-2" target="VlikJ6O9QIKVLXQ5HvOz-4">
          <mxGeometry relative="1" as="geometry" />
        </mxCell>
        <mxCell id="VlikJ6O9QIKVLXQ5HvOz-9" style="edgeStyle=orthogonalEdgeStyle;rounded=0;orthogonalLoop=1;jettySize=auto;html=1;" edge="1" parent="wqnz3s3gSJFlAUqwweRB-1" source="cVmyD9e8kayCVgNoWlCr-2">
          <mxGeometry relative="1" as="geometry">
            <mxPoint x="150" y="240" as="targetPoint" />
          </mxGeometry>
        </mxCell>
        <mxCell id="VlikJ6O9QIKVLXQ5HvOz-10" value="Back" style="edgeLabel;html=1;align=center;verticalAlign=middle;resizable=0;points=[];" vertex="1" connectable="0" parent="VlikJ6O9QIKVLXQ5HvOz-9">
          <mxGeometry x="0.2533" y="-2" relative="1" as="geometry">
            <mxPoint as="offset" />
          </mxGeometry>
        </mxCell>
        <mxCell id="cVmyD9e8kayCVgNoWlCr-2" value="Acct Management" style="strokeWidth=2;html=1;shape=mxgraph.flowchart.decision;whiteSpace=wrap;" vertex="1" parent="wqnz3s3gSJFlAUqwweRB-1">
          <mxGeometry x="210" y="100" width="100" height="100" as="geometry" />
        </mxCell>
        <mxCell id="VlikJ6O9QIKVLXQ5HvOz-3" style="edgeStyle=orthogonalEdgeStyle;rounded=0;orthogonalLoop=1;jettySize=auto;html=1;entryX=0.2;entryY=0.3;entryDx=0;entryDy=0;entryPerimeter=0;" edge="1" parent="wqnz3s3gSJFlAUqwweRB-1" source="V1RmFK4UrBHqZ_teVOmD-0" target="cVmyD9e8kayCVgNoWlCr-2">
          <mxGeometry relative="1" as="geometry" />
        </mxCell>
        <mxCell id="V1RmFK4UrBHqZ_teVOmD-0" value="Form with acct info" style="html=1;strokeWidth=2;shape=manualInput;whiteSpace=wrap;rounded=1;size=26;arcSize=11;" vertex="1" parent="wqnz3s3gSJFlAUqwweRB-1">
          <mxGeometry x="90" y="20" width="100" height="60" as="geometry" />
        </mxCell>
        <mxCell id="VlikJ6O9QIKVLXQ5HvOz-2" style="edgeStyle=orthogonalEdgeStyle;rounded=0;orthogonalLoop=1;jettySize=auto;html=1;entryX=1;entryY=0.5;entryDx=0;entryDy=0;entryPerimeter=0;" edge="1" parent="wqnz3s3gSJFlAUqwweRB-1" source="V1RmFK4UrBHqZ_teVOmD-3" target="VlikJ6O9QIKVLXQ5HvOz-1">
          <mxGeometry relative="1" as="geometry" />
        </mxCell>
        <mxCell id="V1RmFK4UrBHqZ_teVOmD-3" value="Set account status to inactive" style="rounded=1;whiteSpace=wrap;html=1;absoluteArcSize=1;arcSize=14;strokeWidth=2;" vertex="1" parent="wqnz3s3gSJFlAUqwweRB-1">
          <mxGeometry x="210" y="-110" width="100" height="100" as="geometry" />
        </mxCell>
        <mxCell id="VlikJ6O9QIKVLXQ5HvOz-1" value="Logout" style="strokeWidth=2;html=1;shape=mxgraph.flowchart.terminator;whiteSpace=wrap;" vertex="1" parent="wqnz3s3gSJFlAUqwweRB-1">
          <mxGeometry x="140" y="-180" width="100" height="60" as="geometry" />
        </mxCell>
        <mxCell id="VlikJ6O9QIKVLXQ5HvOz-7" style="edgeStyle=orthogonalEdgeStyle;rounded=0;orthogonalLoop=1;jettySize=auto;html=1;entryX=0.5;entryY=1;entryDx=0;entryDy=0;" edge="1" parent="wqnz3s3gSJFlAUqwweRB-1" source="VlikJ6O9QIKVLXQ5HvOz-4" target="VlikJ6O9QIKVLXQ5HvOz-6">
          <mxGeometry relative="1" as="geometry" />
        </mxCell>
        <mxCell id="VlikJ6O9QIKVLXQ5HvOz-4" value="Change Facility ID" style="html=1;strokeWidth=2;shape=manualInput;whiteSpace=wrap;rounded=1;size=26;arcSize=11;" vertex="1" parent="wqnz3s3gSJFlAUqwweRB-1">
          <mxGeometry x="400" y="40" width="100" height="60" as="geometry" />
        </mxCell>
        <mxCell id="VlikJ6O9QIKVLXQ5HvOz-8" style="edgeStyle=orthogonalEdgeStyle;rounded=0;orthogonalLoop=1;jettySize=auto;html=1;exitX=0;exitY=1;exitDx=0;exitDy=0;entryX=0.82;entryY=0.26;entryDx=0;entryDy=0;entryPerimeter=0;" edge="1" parent="wqnz3s3gSJFlAUqwweRB-1" source="VlikJ6O9QIKVLXQ5HvOz-6" target="cVmyD9e8kayCVgNoWlCr-2">
          <mxGeometry relative="1" as="geometry" />
        </mxCell>
        <mxCell id="VlikJ6O9QIKVLXQ5HvOz-6" value="wait for approval from facility" style="rounded=1;whiteSpace=wrap;html=1;absoluteArcSize=1;arcSize=14;strokeWidth=2;" vertex="1" parent="wqnz3s3gSJFlAUqwweRB-1">
          <mxGeometry x="400" y="-110" width="100" height="100" as="geometry" />
        </mxCell>
        <mxCell id="VlikJ6O9QIKVLXQ5HvOz-14" style="edgeStyle=orthogonalEdgeStyle;rounded=0;orthogonalLoop=1;jettySize=auto;html=1;entryX=0.5;entryY=0;entryDx=0;entryDy=0;" edge="1" parent="wqnz3s3gSJFlAUqwweRB-1" source="VlikJ6O9QIKVLXQ5HvOz-11" target="VlikJ6O9QIKVLXQ5HvOz-12">
          <mxGeometry relative="1" as="geometry" />
        </mxCell>
        <mxCell id="VlikJ6O9QIKVLXQ5HvOz-11" value="Facility Info Form" style="html=1;strokeWidth=2;shape=manualInput;whiteSpace=wrap;rounded=1;size=26;arcSize=11;" vertex="1" parent="wqnz3s3gSJFlAUqwweRB-1">
          <mxGeometry x="130" y="360" width="100" height="60" as="geometry" />
        </mxCell>
        <mxCell id="VlikJ6O9QIKVLXQ5HvOz-12" value="Create Facility, set manager, give code" style="rounded=1;whiteSpace=wrap;html=1;absoluteArcSize=1;arcSize=14;strokeWidth=2;" vertex="1" parent="wqnz3s3gSJFlAUqwweRB-1">
          <mxGeometry x="130" y="460" width="100" height="100" as="geometry" />
        </mxCell>
      </root>
    </mxGraphModel>
  </diagram>
</mxfile>
